<svg xmlns="http://www.w3.org/2000/svg" xmlns:xlink="http://www.w3.org/1999/xlink" width="500" zoomAndPan="magnify" viewBox="0 0 375 374.999991" height="500" preserveAspectRatio="xMidYMid meet" version="1.0"><defs><clipPath id="56c94e79ed"><path d="M 3 124.089844 L 78 124.089844 L 78 229.839844 L 3 229.839844 Z M 3 124.089844 " clip-rule="nonzero"/></clipPath><clipPath id="5e096f7cf4"><path d="M 3.472656 124.152344 L 78 124.152344 L 78 229.839844 L 3.472656 229.839844 Z M 3.472656 124.152344 " clip-rule="nonzero"/></clipPath><clipPath id="4252a57cb6"><path d="M 67.882812 162.71875 C 70.3125 162.71875 72.570312 163.9375 74.480469 166.367188 C 76.390625 168.800781 77.429688 172.101562 77.429688 176.097656 C 77.429688 179.746094 76.214844 184.089844 73.609375 188.78125 C 71.703125 192.253906 69.445312 195.554688 66.492188 198.507812 C 64.929688 200.070312 65.105469 202.851562 66.839844 204.242188 L 74.828125 211.539062 C 76.734375 213.273438 76.5625 216.226562 74.480469 217.792969 C 65.453125 225.261719 53.820312 229.777344 41.144531 229.777344 C 26.5625 229.777344 13.367188 223.871094 3.820312 214.316406 C 6.421875 215.011719 9.203125 215.359375 12.152344 215.359375 C 26.910156 215.359375 39.234375 205.628906 49.132812 186.171875 L 54.167969 176.097656 C 58.679688 167.238281 63.195312 162.71875 67.882812 162.71875 M 72.222656 134.75 C 63.542969 128.148438 52.777344 124.5 41.144531 124.5 C 27.257812 124.5 14.757812 129.886719 5.382812 138.574219 C 3.820312 140.136719 3.820312 142.742188 5.382812 144.304688 L 13.542969 152.46875 C 15.105469 154.035156 15.105469 156.464844 13.542969 158.203125 C 7.8125 164.632812 5.035156 170.539062 5.035156 176.097656 C 5.035156 179.398438 5.730469 182.175781 7.117188 184.089844 C 8.679688 185.824219 10.417969 186.695312 12.5 186.695312 C 14.0625 186.695312 15.625 186.171875 17.015625 184.957031 C 18.402344 183.742188 20.3125 180.789062 22.570312 175.921875 L 28.125 164.804688 C 33.855469 152.992188 39.757812 145 45.660156 140.65625 C 51.5625 136.3125 58.679688 134.054688 66.667969 134.054688 C 68.75 134.230469 70.484375 134.402344 72.222656 134.75 " clip-rule="nonzero"/></clipPath><clipPath id="d0f2ad69b4"><path d="M 3.472656 140 L 78 140 L 78 229.839844 L 3.472656 229.839844 Z M 3.472656 140 " clip-rule="nonzero"/></clipPath><clipPath id="cc1ec85518"><path d="M 67.882812 162.71875 C 70.3125 162.71875 72.570312 163.9375 74.480469 166.367188 C 76.390625 168.800781 77.429688 172.101562 77.429688 176.097656 C 77.429688 179.746094 76.214844 184.089844 73.609375 188.78125 C 71.703125 192.253906 69.445312 195.554688 66.492188 198.507812 C 64.929688 200.070312 65.105469 202.851562 66.839844 204.242188 L 74.828125 211.539062 C 76.734375 213.273438 76.5625 216.226562 74.480469 217.792969 C 65.453125 225.261719 53.820312 229.777344 41.144531 229.777344 C 26.5625 229.777344 13.367188 223.871094 3.820312 214.316406 C 6.421875 215.011719 9.203125 215.359375 12.152344 215.359375 C 26.910156 215.359375 39.234375 205.628906 49.132812 186.171875 L 54.167969 176.097656 C 58.679688 167.238281 63.195312 162.71875 67.882812 162.71875 M 72.222656 134.75 C 63.542969 128.148438 52.777344 124.5 41.144531 124.5 C 27.257812 124.5 14.757812 129.886719 5.382812 138.574219 C 3.820312 140.136719 3.820312 142.742188 5.382812 144.304688 L 13.542969 152.46875 C 15.105469 154.035156 15.105469 156.464844 13.542969 158.203125 C 7.8125 164.632812 5.035156 170.539062 5.035156 176.097656 C 5.035156 179.398438 5.730469 182.175781 7.117188 184.089844 C 8.679688 185.824219 10.417969 186.695312 12.5 186.695312 C 14.0625 186.695312 15.625 186.171875 17.015625 184.957031 C 18.402344 183.742188 20.3125 180.789062 22.570312 175.921875 L 28.125 164.804688 C 33.855469 152.992188 39.757812 145 45.660156 140.65625 C 51.5625 136.3125 58.679688 134.054688 66.667969 134.054688 C 68.75 134.230469 70.484375 134.402344 72.222656 134.75 " clip-rule="nonzero"/></clipPath><clipPath id="1889b72d77"><path d="M 3.472656 143 L 66 143 L 66 229.839844 L 3.472656 229.839844 Z M 3.472656 143 " clip-rule="nonzero"/></clipPath><clipPath id="8a2d4633e5"><path d="M 67.882812 162.71875 C 70.3125 162.71875 72.570312 163.9375 74.480469 166.367188 C 76.390625 168.800781 77.429688 172.101562 77.429688 176.097656 C 77.429688 179.746094 76.214844 184.089844 73.609375 188.78125 C 71.703125 192.253906 69.445312 195.554688 66.492188 198.507812 C 64.929688 200.070312 65.105469 202.851562 66.839844 204.242188 L 74.828125 211.539062 C 76.734375 213.273438 76.5625 216.226562 74.480469 217.792969 C 65.453125 225.261719 53.820312 229.777344 41.144531 229.777344 C 26.5625 229.777344 13.367188 223.871094 3.820312 214.316406 C 6.421875 215.011719 9.203125 215.359375 12.152344 215.359375 C 26.910156 215.359375 39.234375 205.628906 49.132812 186.171875 L 54.167969 176.097656 C 58.679688 167.238281 63.195312 162.71875 67.882812 162.71875 M 72.222656 134.75 C 63.542969 128.148438 52.777344 124.5 41.144531 124.5 C 27.257812 124.5 14.757812 129.886719 5.382812 138.574219 C 3.820312 140.136719 3.820312 142.742188 5.382812 144.304688 L 13.542969 152.46875 C 15.105469 154.035156 15.105469 156.464844 13.542969 158.203125 C 7.8125 164.632812 5.035156 170.539062 5.035156 176.097656 C 5.035156 179.398438 5.730469 182.175781 7.117188 184.089844 C 8.679688 185.824219 10.417969 186.695312 12.5 186.695312 C 14.0625 186.695312 15.625 186.171875 17.015625 184.957031 C 18.402344 183.742188 20.3125 180.789062 22.570312 175.921875 L 28.125 164.804688 C 33.855469 152.992188 39.757812 145 45.660156 140.65625 C 51.5625 136.3125 58.679688 134.054688 66.667969 134.054688 C 68.75 134.230469 70.484375 134.402344 72.222656 134.75 " clip-rule="nonzero"/></clipPath><clipPath id="b43dfd6aab"><path d="M 3.472656 135 L 34 135 L 34 229.839844 L 3.472656 229.839844 Z M 3.472656 135 " clip-rule="nonzero"/></clipPath><clipPath id="5b76d2e0d4"><path d="M 67.882812 162.71875 C 70.3125 162.71875 72.570312 163.9375 74.480469 166.367188 C 76.390625 168.800781 77.429688 172.101562 77.429688 176.097656 C 77.429688 179.746094 76.214844 184.089844 73.609375 188.78125 C 71.703125 192.253906 69.445312 195.554688 66.492188 198.507812 C 64.929688 200.070312 65.105469 202.851562 66.839844 204.242188 L 74.828125 211.539062 C 76.734375 213.273438 76.5625 216.226562 74.480469 217.792969 C 65.453125 225.261719 53.820312 229.777344 41.144531 229.777344 C 26.5625 229.777344 13.367188 223.871094 3.820312 214.316406 C 6.421875 215.011719 9.203125 215.359375 12.152344 215.359375 C 26.910156 215.359375 39.234375 205.628906 49.132812 186.171875 L 54.167969 176.097656 C 58.679688 167.238281 63.195312 162.71875 67.882812 162.71875 M 72.222656 134.75 C 63.542969 128.148438 52.777344 124.5 41.144531 124.5 C 27.257812 124.5 14.757812 129.886719 5.382812 138.574219 C 3.820312 140.136719 3.820312 142.742188 5.382812 144.304688 L 13.542969 152.46875 C 15.105469 154.035156 15.105469 156.464844 13.542969 158.203125 C 7.8125 164.632812 5.035156 170.539062 5.035156 176.097656 C 5.035156 179.398438 5.730469 182.175781 7.117188 184.089844 C 8.679688 185.824219 10.417969 186.695312 12.5 186.695312 C 14.0625 186.695312 15.625 186.171875 17.015625 184.957031 C 18.402344 183.742188 20.3125 180.789062 22.570312 175.921875 L 28.125 164.804688 C 33.855469 152.992188 39.757812 145 45.660156 140.65625 C 51.5625 136.3125 58.679688 134.054688 66.667969 134.054688 C 68.75 134.230469 70.484375 134.402344 72.222656 134.75 " clip-rule="nonzero"/></clipPath></defs><g clip-path="url(#56c94e79ed)"><path fill="#ffffff" d="M 67.882812 162.71875 C 70.3125 162.71875 72.570312 163.9375 74.480469 166.367188 C 76.390625 168.800781 77.429688 172.101562 77.429688 176.097656 C 77.429688 179.746094 76.214844 184.089844 73.609375 188.78125 C 71.703125 192.253906 69.445312 195.554688 66.492188 198.507812 C 64.929688 200.070312 65.105469 202.851562 66.839844 204.242188 L 74.828125 211.539062 C 76.734375 213.273438 76.5625 216.226562 74.480469 217.792969 C 65.453125 225.261719 53.820312 229.777344 41.144531 229.777344 C 26.5625 229.777344 13.367188 223.871094 3.820312 214.316406 C 6.421875 215.011719 9.203125 215.359375 12.152344 215.359375 C 26.910156 215.359375 39.234375 205.628906 49.132812 186.171875 L 54.167969 176.097656 C 58.679688 167.238281 63.195312 162.71875 67.882812 162.71875 M 72.222656 134.75 C 63.542969 128.148438 52.777344 124.5 41.144531 124.5 C 27.257812 124.5 14.757812 129.886719 5.382812 138.574219 C 3.820312 140.136719 3.820312 142.742188 5.382812 144.304688 L 13.542969 152.46875 C 15.105469 154.035156 15.105469 156.464844 13.542969 158.203125 C 7.8125 164.632812 5.035156 170.539062 5.035156 176.097656 C 5.035156 179.398438 5.730469 182.175781 7.117188 184.089844 C 8.679688 185.824219 10.417969 186.695312 12.5 186.695312 C 14.0625 186.695312 15.625 186.171875 17.015625 184.957031 C 18.402344 183.742188 20.3125 180.789062 22.570312 175.921875 L 28.125 164.804688 C 33.855469 152.992188 39.757812 145 45.660156 140.65625 C 51.5625 136.3125 58.679688 134.054688 66.667969 134.054688 C 68.75 134.230469 70.484375 134.402344 72.222656 134.75 " fill-opacity="1" fill-rule="nonzero"/></g><g clip-path="url(#5e096f7cf4)"><g clip-path="url(#4252a57cb6)"><path fill="#cf2e2e" d="M 101.734375 203.199219 C 101.734375 204.9375 101.695312 206.675781 101.609375 208.414062 C 101.523438 210.152344 101.394531 211.886719 101.222656 213.621094 C 101.054688 215.351562 100.839844 217.078125 100.585938 218.800781 C 100.332031 220.519531 100.035156 222.234375 99.695312 223.941406 C 99.355469 225.648438 98.972656 227.34375 98.550781 229.03125 C 98.128906 230.71875 97.664062 232.398438 97.160156 234.0625 C 96.65625 235.726562 96.109375 237.378906 95.523438 239.015625 C 94.9375 240.65625 94.3125 242.277344 93.648438 243.886719 C 92.984375 245.492188 92.277344 247.082031 91.535156 248.65625 C 90.792969 250.230469 90.011719 251.785156 89.191406 253.316406 C 88.371094 254.851562 87.515625 256.367188 86.621094 257.859375 C 85.726562 259.351562 84.796875 260.820312 83.828125 262.265625 C 82.863281 263.714844 81.863281 265.136719 80.828125 266.535156 C 79.792969 267.929688 78.722656 269.300781 77.617188 270.648438 C 76.515625 271.992188 75.378906 273.308594 74.210938 274.597656 C 73.042969 275.886719 71.847656 277.148438 70.617188 278.378906 C 69.386719 279.609375 68.128906 280.808594 66.839844 281.976562 C 65.550781 283.144531 64.234375 284.28125 62.890625 285.386719 C 61.546875 286.488281 60.175781 287.558594 58.777344 288.597656 C 57.382812 289.632812 55.960938 290.632812 54.515625 291.601562 C 53.070312 292.566406 51.601562 293.5 50.109375 294.394531 C 48.617188 295.289062 47.105469 296.144531 45.570312 296.964844 C 44.039062 297.785156 42.484375 298.566406 40.914062 299.3125 C 39.34375 300.054688 37.753906 300.761719 36.144531 301.425781 C 34.539062 302.09375 32.917969 302.71875 31.28125 303.304688 C 29.644531 303.890625 27.992188 304.4375 26.328125 304.941406 C 24.664062 305.445312 22.988281 305.910156 21.304688 306.332031 C 19.617188 306.753906 17.917969 307.136719 16.214844 307.476562 C 14.507812 307.816406 12.796875 308.113281 11.078125 308.367188 C 9.355469 308.625 7.632812 308.835938 5.902344 309.007812 C 4.171875 309.179688 2.4375 309.304688 0.699219 309.390625 C -1.039062 309.476562 -2.773438 309.519531 -4.515625 309.519531 C -6.253906 309.519531 -7.992188 309.476562 -9.726562 309.390625 C -11.464844 309.304688 -13.199219 309.179688 -14.929688 309.007812 C -16.660156 308.835938 -18.382812 308.625 -20.105469 308.367188 C -21.824219 308.113281 -23.535156 307.816406 -25.242188 307.476562 C -26.949219 307.136719 -28.644531 306.753906 -30.332031 306.332031 C -32.015625 305.910156 -33.691406 305.445312 -35.355469 304.941406 C -37.019531 304.4375 -38.671875 303.890625 -40.308594 303.304688 C -41.945312 302.71875 -43.566406 302.09375 -45.175781 301.425781 C -46.78125 300.761719 -48.371094 300.054688 -49.941406 299.3125 C -51.511719 298.566406 -53.066406 297.785156 -54.601562 296.964844 C -56.132812 296.144531 -57.644531 295.289062 -59.136719 294.394531 C -60.628906 293.5 -62.097656 292.566406 -63.542969 291.601562 C -64.988281 290.632812 -66.410156 289.632812 -67.808594 288.597656 C -69.203125 287.558594 -70.574219 286.488281 -71.917969 285.386719 C -73.261719 284.28125 -74.578125 283.144531 -75.867188 281.976562 C -77.15625 280.808594 -78.414062 279.609375 -79.644531 278.378906 C -80.875 277.148438 -82.070312 275.886719 -83.238281 274.597656 C -84.40625 273.308594 -85.542969 271.992188 -86.644531 270.648438 C -87.75 269.300781 -88.820312 267.929688 -89.855469 266.535156 C -90.890625 265.136719 -91.890625 263.714844 -92.859375 262.265625 C -93.824219 260.820312 -94.753906 259.351562 -95.648438 257.859375 C -96.542969 256.367188 -97.398438 254.851562 -98.21875 253.316406 C -99.039062 251.785156 -99.820312 250.230469 -100.5625 248.65625 C -101.304688 247.082031 -102.011719 245.492188 -102.675781 243.886719 C -103.339844 242.277344 -103.96875 240.65625 -104.554688 239.015625 C -105.140625 237.378906 -105.683594 235.726562 -106.1875 234.0625 C -106.695312 232.398438 -107.15625 230.71875 -107.578125 229.03125 C -108.003906 227.34375 -108.382812 225.648438 -108.722656 223.941406 C -109.0625 222.234375 -109.359375 220.519531 -109.613281 218.800781 C -109.867188 217.078125 -110.082031 215.351562 -110.253906 213.621094 C -110.421875 211.886719 -110.550781 210.152344 -110.636719 208.414062 C -110.722656 206.675781 -110.765625 204.9375 -110.765625 203.199219 C -110.765625 201.457031 -110.722656 199.71875 -110.636719 197.980469 C -110.550781 196.242188 -110.421875 194.507812 -110.253906 192.777344 C -110.082031 191.046875 -109.867188 189.320312 -109.613281 187.597656 C -109.359375 185.875 -109.0625 184.164062 -108.722656 182.457031 C -108.382812 180.75 -108.003906 179.050781 -107.578125 177.363281 C -107.15625 175.675781 -106.695312 174 -106.1875 172.335938 C -105.683594 170.671875 -105.140625 169.019531 -104.554688 167.378906 C -103.96875 165.742188 -103.339844 164.117188 -102.675781 162.511719 C -102.011719 160.902344 -101.304688 159.3125 -100.5625 157.742188 C -99.820312 156.167969 -99.039062 154.613281 -98.21875 153.078125 C -97.398438 151.542969 -96.542969 150.03125 -95.648438 148.539062 C -94.753906 147.046875 -93.824219 145.578125 -92.859375 144.128906 C -91.890625 142.683594 -90.890625 141.261719 -89.855469 139.863281 C -88.820312 138.464844 -87.75 137.09375 -86.644531 135.75 C -85.542969 134.40625 -84.40625 133.085938 -83.238281 131.796875 C -82.070312 130.507812 -80.875 129.25 -79.644531 128.019531 C -78.414062 126.789062 -77.15625 125.589844 -75.867188 124.421875 C -74.578125 123.25 -73.261719 122.117188 -71.917969 121.011719 C -70.574219 119.90625 -69.203125 118.835938 -67.808594 117.800781 C -66.410156 116.765625 -64.988281 115.761719 -63.542969 114.796875 C -62.097656 113.828125 -60.628906 112.898438 -59.136719 112.003906 C -57.644531 111.109375 -56.132812 110.253906 -54.601562 109.433594 C -53.066406 108.613281 -51.511719 107.828125 -49.941406 107.085938 C -48.371094 106.34375 -46.78125 105.636719 -45.175781 104.972656 C -43.566406 104.304688 -41.945312 103.679688 -40.308594 103.09375 C -38.671875 102.507812 -37.019531 101.960938 -35.355469 101.457031 C -33.691406 100.949219 -32.015625 100.488281 -30.332031 100.0625 C -28.644531 99.640625 -26.949219 99.261719 -25.242188 98.921875 C -23.535156 98.582031 -21.824219 98.285156 -20.105469 98.027344 C -18.382812 97.773438 -16.660156 97.558594 -14.929688 97.390625 C -13.199219 97.21875 -11.464844 97.089844 -9.726562 97.007812 C -7.992188 96.921875 -6.253906 96.878906 -4.515625 96.878906 C -2.773438 96.878906 -1.039062 96.921875 0.699219 97.007812 C 2.4375 97.089844 4.171875 97.21875 5.902344 97.390625 C 7.632812 97.558594 9.355469 97.773438 11.078125 98.027344 C 12.796875 98.285156 14.507812 98.582031 16.214844 98.921875 C 17.917969 99.261719 19.617188 99.640625 21.304688 100.0625 C 22.988281 100.488281 24.664062 100.949219 26.328125 101.457031 C 27.992188 101.960938 29.644531 102.507812 31.28125 103.09375 C 32.917969 103.679688 34.539062 104.304688 36.144531 104.972656 C 37.753906 105.636719 39.34375 106.34375 40.914062 107.085938 C 42.484375 107.828125 44.039062 108.613281 45.570312 109.433594 C 47.105469 110.253906 48.617188 111.109375 50.109375 112.003906 C 51.601562 112.898438 53.070312 113.828125 54.515625 114.796875 C 55.960938 115.761719 57.382812 116.765625 58.777344 117.800781 C 60.175781 118.835938 61.546875 119.90625 62.890625 121.011719 C 64.234375 122.117188 65.550781 123.25 66.839844 124.421875 C 68.128906 125.589844 69.386719 126.789062 70.617188 128.019531 C 71.847656 129.25 73.042969 130.507812 74.210938 131.796875 C 75.378906 133.085938 76.515625 134.40625 77.617188 135.75 C 78.722656 137.09375 79.792969 138.464844 80.828125 139.863281 C 81.863281 141.261719 82.863281 142.683594 83.828125 144.128906 C 84.796875 145.578125 85.726562 147.046875 86.621094 148.539062 C 87.515625 150.03125 88.371094 151.542969 89.191406 153.078125 C 90.011719 154.613281 90.792969 156.167969 91.535156 157.742188 C 92.277344 159.3125 92.984375 160.902344 93.648438 162.511719 C 94.3125 164.117188 94.9375 165.742188 95.523438 167.378906 C 96.109375 169.019531 96.65625 170.671875 97.160156 172.335938 C 97.664062 174 98.128906 175.675781 98.550781 177.363281 C 98.972656 179.050781 99.355469 180.75 99.695312 182.457031 C 100.035156 184.164062 100.332031 185.875 100.585938 187.597656 C 100.839844 189.320312 101.054688 191.046875 101.222656 192.777344 C 101.394531 194.507812 101.523438 196.242188 101.609375 197.980469 C 101.695312 199.71875 101.734375 201.457031 101.734375 203.199219 Z M 101.734375 203.199219 " fill-opacity="1" fill-rule="nonzero"/></g></g><g clip-path="url(#d0f2ad69b4)"><g clip-path="url(#cc1ec85518)"><path fill="#cf2e2e" d="M 112.671875 246.976562 C 112.671875 248.71875 112.632812 250.457031 112.546875 252.195312 C 112.460938 253.933594 112.332031 255.667969 112.160156 257.398438 C 111.992188 259.128906 111.777344 260.855469 111.523438 262.578125 C 111.269531 264.300781 110.972656 266.011719 110.632812 267.71875 C 110.292969 269.425781 109.910156 271.125 109.488281 272.8125 C 109.066406 274.5 108.601562 276.175781 108.097656 277.839844 C 107.59375 279.507812 107.046875 281.15625 106.460938 282.796875 C 105.875 284.433594 105.25 286.058594 104.585938 287.664062 C 103.921875 289.273438 103.214844 290.863281 102.472656 292.4375 C 101.730469 294.007812 100.949219 295.5625 100.128906 297.097656 C 99.308594 298.632812 98.453125 300.144531 97.558594 301.636719 C 96.664062 303.128906 95.734375 304.597656 94.765625 306.046875 C 93.800781 307.492188 92.800781 308.914062 91.765625 310.3125 C 90.730469 311.710938 89.660156 313.082031 88.554688 314.425781 C 87.453125 315.773438 86.316406 317.089844 85.148438 318.378906 C 83.980469 319.667969 82.785156 320.925781 81.554688 322.15625 C 80.324219 323.386719 79.066406 324.585938 77.777344 325.757812 C 76.488281 326.925781 75.171875 328.0625 73.828125 329.164062 C 72.484375 330.269531 71.113281 331.339844 69.714844 332.375 C 68.320312 333.410156 66.898438 334.414062 65.453125 335.378906 C 64.007812 336.347656 62.539062 337.277344 61.046875 338.171875 C 59.554688 339.066406 58.042969 339.925781 56.507812 340.746094 C 54.976562 341.5625 53.421875 342.347656 51.851562 343.089844 C 50.28125 343.835938 48.691406 344.539062 47.082031 345.207031 C 45.476562 345.871094 43.855469 346.496094 42.21875 347.082031 C 40.582031 347.667969 38.929688 348.214844 37.265625 348.71875 C 35.601562 349.226562 33.925781 349.6875 32.242188 350.113281 C 30.554688 350.535156 28.855469 350.914062 27.152344 351.253906 C 25.445312 351.59375 23.734375 351.890625 22.015625 352.148438 C 20.292969 352.402344 18.570312 352.617188 16.839844 352.785156 C 15.109375 352.957031 13.375 353.085938 11.636719 353.171875 C 9.898438 353.253906 8.164062 353.296875 6.421875 353.296875 C 4.683594 353.296875 2.945312 353.253906 1.210938 353.171875 C -0.527344 353.085938 -2.261719 352.957031 -3.992188 352.785156 C -5.722656 352.617188 -7.445312 352.402344 -9.167969 352.148438 C -10.886719 351.890625 -12.597656 351.59375 -14.304688 351.253906 C -16.011719 350.914062 -17.707031 350.535156 -19.394531 350.113281 C -21.078125 349.6875 -22.753906 349.226562 -24.417969 348.71875 C -26.082031 348.214844 -27.734375 347.667969 -29.371094 347.082031 C -31.007812 346.496094 -32.628906 345.871094 -34.238281 345.207031 C -35.84375 344.539062 -37.433594 343.835938 -39.003906 343.089844 C -40.574219 342.347656 -42.128906 341.5625 -43.664062 340.746094 C -45.195312 339.925781 -46.707031 339.066406 -48.199219 338.171875 C -49.691406 337.277344 -51.160156 336.347656 -52.605469 335.378906 C -54.050781 334.414062 -55.472656 333.410156 -56.871094 332.375 C -58.265625 331.339844 -59.636719 330.269531 -60.980469 329.164062 C -62.324219 328.0625 -63.640625 326.925781 -64.929688 325.757812 C -66.21875 324.585938 -67.476562 323.386719 -68.707031 322.15625 C -69.9375 320.925781 -71.132812 319.667969 -72.300781 318.378906 C -73.46875 317.089844 -74.605469 315.773438 -75.707031 314.425781 C -76.8125 313.082031 -77.882812 311.710938 -78.917969 310.3125 C -79.953125 308.914062 -80.953125 307.492188 -81.921875 306.046875 C -82.886719 304.597656 -83.816406 303.128906 -84.710938 301.636719 C -85.605469 300.144531 -86.460938 298.632812 -87.28125 297.097656 C -88.101562 295.5625 -88.882812 294.007812 -89.625 292.4375 C -90.367188 290.863281 -91.074219 289.273438 -91.738281 287.664062 C -92.402344 286.058594 -93.03125 284.433594 -93.617188 282.796875 C -94.203125 281.15625 -94.746094 279.507812 -95.25 277.839844 C -95.757812 276.175781 -96.21875 274.5 -96.640625 272.8125 C -97.066406 271.125 -97.445312 269.425781 -97.785156 267.71875 C -98.125 266.011719 -98.421875 264.300781 -98.675781 262.578125 C -98.929688 260.855469 -99.144531 259.128906 -99.316406 257.398438 C -99.484375 255.667969 -99.613281 253.933594 -99.699219 252.195312 C -99.785156 250.457031 -99.828125 248.71875 -99.828125 246.976562 C -99.828125 245.238281 -99.785156 243.5 -99.699219 241.761719 C -99.613281 240.023438 -99.484375 238.289062 -99.316406 236.554688 C -99.144531 234.824219 -98.929688 233.097656 -98.675781 231.378906 C -98.421875 229.65625 -98.125 227.941406 -97.785156 226.234375 C -97.445312 224.527344 -97.066406 222.832031 -96.640625 221.144531 C -96.21875 219.457031 -95.757812 217.78125 -95.25 216.113281 C -94.746094 214.449219 -94.203125 212.796875 -93.617188 211.160156 C -93.03125 209.519531 -92.402344 207.898438 -91.738281 206.289062 C -91.074219 204.683594 -90.367188 203.09375 -89.625 201.519531 C -88.882812 199.945312 -88.101562 198.394531 -87.28125 196.859375 C -86.460938 195.324219 -85.605469 193.808594 -84.710938 192.316406 C -83.816406 190.824219 -82.886719 189.355469 -81.921875 187.910156 C -80.953125 186.460938 -79.953125 185.039062 -78.917969 183.640625 C -77.882812 182.246094 -76.8125 180.875 -75.707031 179.527344 C -74.605469 178.183594 -73.46875 176.867188 -72.300781 175.578125 C -71.132812 174.289062 -69.9375 173.027344 -68.707031 171.796875 C -67.476562 170.566406 -66.21875 169.367188 -64.929688 168.199219 C -63.640625 167.03125 -62.324219 165.894531 -60.980469 164.789062 C -59.636719 163.6875 -58.265625 162.617188 -56.871094 161.582031 C -55.472656 160.542969 -54.050781 159.542969 -52.605469 158.574219 C -51.160156 157.609375 -49.691406 156.679688 -48.199219 155.785156 C -46.707031 154.890625 -45.195312 154.03125 -43.664062 153.210938 C -42.128906 152.390625 -40.574219 151.609375 -39.003906 150.863281 C -37.433594 150.121094 -35.84375 149.417969 -34.238281 148.75 C -32.628906 148.085938 -31.007812 147.457031 -29.371094 146.871094 C -27.734375 146.285156 -26.082031 145.742188 -24.417969 145.234375 C -22.753906 144.730469 -21.078125 144.265625 -19.394531 143.84375 C -17.707031 143.421875 -16.011719 143.039062 -14.304688 142.699219 C -12.597656 142.359375 -10.886719 142.0625 -9.167969 141.808594 C -7.445312 141.550781 -5.722656 141.339844 -3.992188 141.167969 C -2.261719 141 -0.527344 140.871094 1.210938 140.785156 C 2.945312 140.699219 4.683594 140.65625 6.421875 140.65625 C 8.164062 140.65625 9.898438 140.699219 11.636719 140.785156 C 13.375 140.871094 15.109375 141 16.839844 141.167969 C 18.570312 141.339844 20.292969 141.550781 22.015625 141.808594 C 23.734375 142.0625 25.445312 142.359375 27.152344 142.699219 C 28.855469 143.039062 30.554688 143.421875 32.242188 143.84375 C 33.925781 144.265625 35.601562 144.730469 37.265625 145.234375 C 38.929688 145.742188 40.582031 146.285156 42.21875 146.871094 C 43.855469 147.457031 45.476562 148.085938 47.082031 148.75 C 48.691406 149.417969 50.28125 150.121094 51.851562 150.863281 C 53.421875 151.609375 54.976562 152.390625 56.507812 153.210938 C 58.042969 154.03125 59.554688 154.890625 61.046875 155.785156 C 62.539062 156.679688 64.007812 157.609375 65.453125 158.574219 C 66.898438 159.542969 68.320312 160.542969 69.714844 161.582031 C 71.113281 162.617188 72.484375 163.6875 73.828125 164.789062 C 75.171875 165.894531 76.488281 167.03125 77.777344 168.199219 C 79.066406 169.367188 80.324219 170.566406 81.554688 171.796875 C 82.785156 173.027344 83.980469 174.289062 85.148438 175.578125 C 86.316406 176.867188 87.453125 178.183594 88.554688 179.527344 C 89.660156 180.875 90.730469 182.246094 91.765625 183.640625 C 92.800781 185.039062 93.800781 186.460938 94.765625 187.910156 C 95.734375 189.355469 96.664062 190.824219 97.558594 192.316406 C 98.453125 193.808594 99.308594 195.324219 100.128906 196.859375 C 100.949219 198.394531 101.730469 199.945312 102.472656 201.519531 C 103.214844 203.09375 103.921875 204.683594 104.585938 206.289062 C 105.25 207.898438 105.875 209.519531 106.460938 211.160156 C 107.046875 212.796875 107.59375 214.449219 108.097656 216.113281 C 108.601562 217.78125 109.066406 219.457031 109.488281 221.144531 C 109.910156 222.832031 110.292969 224.527344 110.632812 226.234375 C 110.972656 227.941406 111.269531 229.65625 111.523438 231.378906 C 111.777344 233.097656 111.992188 234.824219 112.160156 236.554688 C 112.332031 238.289062 112.460938 240.023438 112.546875 241.761719 C 112.632812 243.5 112.671875 245.238281 112.671875 246.976562 Z M 112.671875 246.976562 " fill-opacity="1" fill-rule="nonzero"/></g></g><g clip-path="url(#1889b72d77)"><g clip-path="url(#8a2d4633e5)"><path fill="#cf2e2e" d="M 65.277344 237.421875 C 65.277344 238.960938 65.238281 240.5 65.164062 242.035156 C 65.089844 243.570312 64.976562 245.105469 64.824219 246.636719 C 64.675781 248.164062 64.488281 249.691406 64.261719 251.214844 C 64.035156 252.734375 63.773438 254.25 63.472656 255.757812 C 63.171875 257.265625 62.835938 258.765625 62.464844 260.257812 C 62.089844 261.75 61.679688 263.234375 61.234375 264.707031 C 60.789062 266.175781 60.304688 267.636719 59.789062 269.085938 C 59.269531 270.535156 58.714844 271.96875 58.128906 273.390625 C 57.539062 274.8125 56.917969 276.214844 56.261719 277.605469 C 55.601562 278.996094 54.910156 280.371094 54.1875 281.726562 C 53.460938 283.085938 52.707031 284.421875 51.914062 285.742188 C 51.125 287.0625 50.304688 288.359375 49.449219 289.636719 C 48.59375 290.917969 47.710938 292.175781 46.792969 293.410156 C 45.878906 294.644531 44.933594 295.859375 43.957031 297.046875 C 42.984375 298.234375 41.980469 299.398438 40.945312 300.539062 C 39.914062 301.679688 38.855469 302.792969 37.769531 303.882812 C 36.679688 304.96875 35.566406 306.027344 34.429688 307.0625 C 33.289062 308.09375 32.125 309.097656 30.9375 310.074219 C 29.75 311.050781 28.539062 311.996094 27.304688 312.914062 C 26.070312 313.828125 24.8125 314.714844 23.535156 315.570312 C 22.257812 316.425781 20.960938 317.246094 19.640625 318.039062 C 18.320312 318.828125 16.984375 319.585938 15.628906 320.3125 C 14.273438 321.035156 12.902344 321.726562 11.511719 322.386719 C 10.121094 323.042969 8.71875 323.664062 7.296875 324.253906 C 5.878906 324.84375 4.441406 325.398438 2.996094 325.914062 C 1.546875 326.433594 0.0898438 326.914062 -1.382812 327.363281 C -2.851562 327.808594 -4.332031 328.21875 -5.824219 328.59375 C -7.316406 328.964844 -8.816406 329.304688 -10.320312 329.601562 C -11.828125 329.902344 -13.34375 330.164062 -14.863281 330.390625 C -16.386719 330.617188 -17.910156 330.804688 -19.441406 330.957031 C -20.96875 331.105469 -22.5 331.21875 -24.039062 331.296875 C -25.574219 331.371094 -27.109375 331.410156 -28.644531 331.410156 C -30.183594 331.410156 -31.71875 331.371094 -33.253906 331.296875 C -34.789062 331.21875 -36.320312 331.105469 -37.851562 330.957031 C -39.382812 330.804688 -40.90625 330.617188 -42.425781 330.390625 C -43.949219 330.164062 -45.460938 329.902344 -46.96875 329.601562 C -48.476562 329.304688 -49.976562 328.964844 -51.46875 328.59375 C -52.957031 328.21875 -54.441406 327.808594 -55.910156 327.363281 C -57.382812 326.914062 -58.839844 326.433594 -60.289062 325.914062 C -61.734375 325.398438 -63.167969 324.84375 -64.589844 324.253906 C -66.007812 323.664062 -67.414062 323.042969 -68.804688 322.386719 C -70.191406 321.726562 -71.566406 321.035156 -72.921875 320.3125 C -74.277344 319.585938 -75.613281 318.828125 -76.933594 318.039062 C -78.25 317.246094 -79.550781 316.425781 -80.828125 315.570312 C -82.105469 314.714844 -83.363281 313.828125 -84.597656 312.914062 C -85.832031 311.996094 -87.042969 311.050781 -88.230469 310.074219 C -89.417969 309.097656 -90.582031 308.09375 -91.722656 307.0625 C -92.859375 306.027344 -93.972656 304.96875 -95.058594 303.882812 C -96.148438 302.792969 -97.207031 301.679688 -98.238281 300.539062 C -99.269531 299.398438 -100.273438 298.234375 -101.25 297.046875 C -102.226562 295.859375 -103.171875 294.644531 -104.085938 293.410156 C -105 292.175781 -105.886719 290.917969 -106.742188 289.636719 C -107.59375 288.359375 -108.417969 287.0625 -109.207031 285.742188 C -109.996094 284.421875 -110.753906 283.085938 -111.480469 281.726562 C -112.203125 280.371094 -112.894531 278.996094 -113.550781 277.605469 C -114.207031 276.214844 -114.832031 274.8125 -115.417969 273.390625 C -116.007812 271.96875 -116.5625 270.535156 -117.078125 269.085938 C -117.597656 267.636719 -118.078125 266.175781 -118.523438 264.707031 C -118.972656 263.234375 -119.382812 261.75 -119.753906 260.257812 C -120.128906 258.765625 -120.464844 257.265625 -120.765625 255.757812 C -121.066406 254.25 -121.328125 252.734375 -121.554688 251.214844 C -121.777344 249.691406 -121.964844 248.164062 -122.117188 246.636719 C -122.269531 245.105469 -122.382812 243.570312 -122.457031 242.035156 C -122.53125 240.5 -122.570312 238.960938 -122.570312 237.421875 C -122.570312 235.882812 -122.53125 234.347656 -122.457031 232.8125 C -122.382812 231.273438 -122.269531 229.742188 -122.117188 228.210938 C -121.964844 226.679688 -121.777344 225.152344 -121.554688 223.632812 C -121.328125 222.109375 -121.066406 220.59375 -120.765625 219.085938 C -120.464844 217.578125 -120.128906 216.078125 -119.753906 214.585938 C -119.382812 213.09375 -118.972656 211.613281 -118.523438 210.140625 C -118.078125 208.667969 -117.597656 207.207031 -117.078125 205.761719 C -116.5625 204.3125 -116.007812 202.875 -115.417969 201.457031 C -114.832031 200.035156 -114.207031 198.628906 -113.550781 197.238281 C -112.894531 195.847656 -112.203125 194.472656 -111.480469 193.117188 C -110.753906 191.761719 -109.996094 190.421875 -109.207031 189.105469 C -108.417969 187.785156 -107.59375 186.484375 -106.742188 185.207031 C -105.886719 183.929688 -105 182.671875 -104.085938 181.433594 C -103.171875 180.199219 -102.226562 178.988281 -101.25 177.796875 C -100.273438 176.609375 -99.269531 175.445312 -98.238281 174.304688 C -97.207031 173.164062 -96.148438 172.050781 -95.058594 170.964844 C -93.972656 169.875 -92.859375 168.816406 -91.722656 167.785156 C -90.582031 166.75 -89.417969 165.746094 -88.230469 164.769531 C -87.042969 163.792969 -85.832031 162.847656 -84.597656 161.933594 C -83.363281 161.015625 -82.105469 160.128906 -80.828125 159.277344 C -79.550781 158.421875 -78.25 157.597656 -76.933594 156.808594 C -75.613281 156.015625 -74.277344 155.257812 -72.921875 154.535156 C -71.566406 153.808594 -70.191406 153.117188 -68.804688 152.460938 C -67.414062 151.800781 -66.007812 151.179688 -64.589844 150.589844 C -63.167969 150.003906 -61.734375 149.449219 -60.289062 148.929688 C -58.839844 148.414062 -57.382812 147.929688 -55.910156 147.484375 C -54.441406 147.039062 -52.957031 146.628906 -51.46875 146.253906 C -49.976562 145.878906 -48.476562 145.542969 -46.96875 145.242188 C -45.460938 144.941406 -43.949219 144.679688 -42.425781 144.453125 C -40.90625 144.226562 -39.382812 144.039062 -37.851562 143.890625 C -36.320312 143.738281 -34.789062 143.625 -33.253906 143.550781 C -31.71875 143.472656 -30.183594 143.4375 -28.644531 143.4375 C -27.109375 143.4375 -25.574219 143.472656 -24.039062 143.550781 C -22.5 143.625 -20.96875 143.738281 -19.441406 143.890625 C -17.910156 144.039062 -16.386719 144.226562 -14.863281 144.453125 C -13.34375 144.679688 -11.828125 144.941406 -10.320312 145.242188 C -8.816406 145.542969 -7.316406 145.878906 -5.824219 146.253906 C -4.332031 146.628906 -2.851562 147.039062 -1.382812 147.484375 C 0.0898438 147.929688 1.546875 148.414062 2.996094 148.929688 C 4.441406 149.449219 5.878906 150.003906 7.296875 150.589844 C 8.71875 151.179688 10.121094 151.800781 11.511719 152.460938 C 12.902344 153.117188 14.273438 153.808594 15.628906 154.535156 C 16.984375 155.257812 18.320312 156.015625 19.640625 156.808594 C 20.960938 157.597656 22.257812 158.421875 23.535156 159.277344 C 24.8125 160.128906 26.070312 161.015625 27.304688 161.933594 C 28.539062 162.847656 29.75 163.792969 30.9375 164.769531 C 32.125 165.746094 33.289062 166.75 34.429688 167.785156 C 35.566406 168.816406 36.679688 169.875 37.769531 170.964844 C 38.855469 172.050781 39.914062 173.164062 40.945312 174.304688 C 41.980469 175.445312 42.984375 176.609375 43.957031 177.796875 C 44.933594 178.988281 45.878906 180.199219 46.792969 181.433594 C 47.710938 182.671875 48.59375 183.929688 49.449219 185.207031 C 50.304688 186.484375 51.125 187.785156 51.914062 189.105469 C 52.707031 190.421875 53.460938 191.761719 54.1875 193.117188 C 54.910156 194.472656 55.601562 195.847656 56.261719 197.238281 C 56.917969 198.628906 57.539062 200.035156 58.128906 201.457031 C 58.714844 202.875 59.269531 204.3125 59.789062 205.761719 C 60.304688 207.207031 60.789062 208.667969 61.234375 210.140625 C 61.679688 211.613281 62.089844 213.09375 62.464844 214.585938 C 62.835938 216.078125 63.171875 217.578125 63.472656 219.085938 C 63.773438 220.59375 64.035156 222.109375 64.261719 223.632812 C 64.488281 225.152344 64.675781 226.679688 64.824219 228.210938 C 64.976562 229.742188 65.089844 231.273438 65.164062 232.8125 C 65.238281 234.347656 65.277344 235.882812 65.277344 237.421875 Z M 65.277344 237.421875 " fill-opacity="1" fill-rule="nonzero"/></g></g><g clip-path="url(#b43dfd6aab)"><g clip-path="url(#5b76d2e0d4)"><path fill="#cf2e2e" d="M 33.332031 229.605469 C 33.332031 231.144531 33.296875 232.679688 33.21875 234.214844 C 33.144531 235.753906 33.03125 237.285156 32.882812 238.816406 C 32.730469 240.347656 32.542969 241.875 32.316406 243.394531 C 32.089844 244.917969 31.828125 246.433594 31.527344 247.941406 C 31.230469 249.449219 30.890625 250.949219 30.519531 252.441406 C 30.144531 253.933594 29.734375 255.414062 29.289062 256.886719 C 28.84375 258.359375 28.359375 259.820312 27.84375 261.269531 C 27.324219 262.714844 26.773438 264.152344 26.183594 265.570312 C 25.59375 266.992188 24.972656 268.398438 24.316406 269.789062 C 23.660156 271.179688 22.96875 272.554688 22.242188 273.910156 C 21.519531 275.265625 20.761719 276.605469 19.96875 277.921875 C 19.179688 279.242188 18.359375 280.542969 17.503906 281.820312 C 16.648438 283.101562 15.765625 284.355469 14.851562 285.59375 C 13.933594 286.828125 12.988281 288.039062 12.011719 289.230469 C 11.039062 290.417969 10.035156 291.582031 9.003906 292.722656 C 7.96875 293.863281 6.910156 294.976562 5.824219 296.0625 C 4.738281 297.152344 3.625 298.210938 2.484375 299.246094 C 1.347656 300.277344 0.183594 301.28125 -1.003906 302.257812 C -2.195312 303.234375 -3.40625 304.179688 -4.640625 305.09375 C -5.875 306.011719 -7.132812 306.898438 -8.410156 307.75 C -9.6875 308.605469 -10.984375 309.429688 -12.304688 310.21875 C -13.621094 311.011719 -14.960938 311.769531 -16.316406 312.492188 C -17.671875 313.21875 -19.042969 313.910156 -20.433594 314.566406 C -21.824219 315.226562 -23.226562 315.847656 -24.648438 316.4375 C -26.066406 317.027344 -27.5 317.578125 -28.949219 318.097656 C -30.394531 318.617188 -31.855469 319.097656 -33.324219 319.542969 C -34.796875 319.992188 -36.277344 320.402344 -37.769531 320.773438 C -39.257812 321.148438 -40.757812 321.484375 -42.265625 321.785156 C -43.773438 322.085938 -45.289062 322.347656 -46.808594 322.574219 C -48.328125 322.800781 -49.855469 322.988281 -51.382812 323.136719 C -52.914062 323.289062 -54.445312 323.402344 -55.980469 323.476562 C -57.515625 323.554688 -59.054688 323.589844 -60.589844 323.589844 C -62.128906 323.589844 -63.664062 323.554688 -65.199219 323.476562 C -66.734375 323.402344 -68.265625 323.289062 -69.796875 323.136719 C -71.324219 322.988281 -72.851562 322.800781 -74.371094 322.574219 C -75.890625 322.347656 -77.40625 322.085938 -78.914062 321.785156 C -80.421875 321.484375 -81.921875 321.148438 -83.410156 320.773438 C -84.902344 320.402344 -86.382812 319.992188 -87.855469 319.542969 C -89.324219 319.097656 -90.785156 318.617188 -92.230469 318.097656 C -93.679688 317.578125 -95.113281 317.027344 -96.535156 316.4375 C -97.953125 315.847656 -99.359375 315.226562 -100.746094 314.566406 C -102.136719 313.910156 -103.511719 313.21875 -104.867188 312.492188 C -106.222656 311.769531 -107.558594 311.011719 -108.875 310.21875 C -110.195312 309.429688 -111.492188 308.605469 -112.769531 307.75 C -114.050781 306.898438 -115.304688 306.011719 -116.539062 305.09375 C -117.773438 304.179688 -118.988281 303.234375 -120.175781 302.257812 C -121.363281 301.28125 -122.527344 300.277344 -123.664062 299.246094 C -124.804688 298.210938 -125.917969 297.152344 -127.003906 296.0625 C -128.089844 294.976562 -129.152344 293.863281 -130.183594 292.722656 C -131.214844 291.582031 -132.21875 290.417969 -133.195312 289.230469 C -134.167969 288.039062 -135.113281 286.828125 -136.03125 285.59375 C -136.945312 284.355469 -137.832031 283.101562 -138.683594 281.820312 C -139.539062 280.542969 -140.359375 279.242188 -141.152344 277.921875 C -141.941406 276.605469 -142.699219 275.265625 -143.421875 273.910156 C -144.148438 272.554688 -144.839844 271.179688 -145.496094 269.789062 C -146.152344 268.398438 -146.777344 266.992188 -147.363281 265.570312 C -147.953125 264.152344 -148.503906 262.714844 -149.023438 261.269531 C -149.542969 259.820312 -150.023438 258.359375 -150.46875 256.886719 C -150.914062 255.414062 -151.324219 253.933594 -151.699219 252.441406 C -152.074219 250.949219 -152.410156 249.449219 -152.710938 247.941406 C -153.007812 246.433594 -153.273438 244.917969 -153.496094 243.394531 C -153.722656 241.875 -153.910156 240.347656 -154.0625 238.816406 C -154.210938 237.285156 -154.324219 235.753906 -154.402344 234.214844 C -154.476562 232.679688 -154.515625 231.144531 -154.515625 229.605469 C -154.515625 228.066406 -154.476562 226.53125 -154.402344 224.992188 C -154.324219 223.457031 -154.210938 221.921875 -154.0625 220.394531 C -153.910156 218.863281 -153.722656 217.335938 -153.496094 215.8125 C -153.273438 214.292969 -153.007812 212.777344 -152.710938 211.269531 C -152.410156 209.761719 -152.074219 208.261719 -151.699219 206.769531 C -151.324219 205.277344 -150.914062 203.792969 -150.46875 202.324219 C -150.023438 200.851562 -149.542969 199.390625 -149.023438 197.941406 C -148.503906 196.492188 -147.953125 195.058594 -147.363281 193.636719 C -146.777344 192.21875 -146.152344 190.8125 -145.496094 189.421875 C -144.839844 188.03125 -144.148438 186.65625 -143.421875 185.300781 C -142.699219 183.945312 -141.941406 182.605469 -141.152344 181.285156 C -140.359375 179.96875 -139.539062 178.667969 -138.683594 177.390625 C -137.832031 176.109375 -136.945312 174.851562 -136.03125 173.617188 C -135.113281 172.382812 -134.167969 171.171875 -133.195312 169.980469 C -132.21875 168.792969 -131.214844 167.628906 -130.183594 166.488281 C -129.152344 165.347656 -128.089844 164.234375 -127.003906 163.148438 C -125.917969 162.058594 -124.804688 161 -123.664062 159.964844 C -122.527344 158.933594 -121.363281 157.929688 -120.175781 156.953125 C -118.988281 155.976562 -117.773438 155.03125 -116.539062 154.113281 C -115.304688 153.199219 -114.050781 152.3125 -112.769531 151.457031 C -111.492188 150.605469 -110.195312 149.78125 -108.875 148.992188 C -107.558594 148.199219 -106.222656 147.441406 -104.867188 146.714844 C -103.511719 145.992188 -102.136719 145.300781 -100.746094 144.644531 C -99.359375 143.984375 -97.953125 143.363281 -96.535156 142.773438 C -95.113281 142.183594 -93.679688 141.632812 -92.230469 141.113281 C -90.785156 140.59375 -89.324219 140.113281 -87.855469 139.664062 C -86.382812 139.21875 -84.902344 138.808594 -83.410156 138.4375 C -81.921875 138.0625 -80.421875 137.726562 -78.914062 137.425781 C -77.40625 137.125 -75.890625 136.863281 -74.371094 136.636719 C -72.851562 136.410156 -71.324219 136.222656 -69.796875 136.070312 C -68.265625 135.921875 -66.734375 135.808594 -65.199219 135.730469 C -63.664062 135.65625 -62.128906 135.617188 -60.589844 135.617188 C -59.054688 135.617188 -57.515625 135.65625 -55.980469 135.730469 C -54.445312 135.808594 -52.914062 135.921875 -51.382812 136.070312 C -49.855469 136.222656 -48.328125 136.410156 -46.808594 136.636719 C -45.289062 136.863281 -43.773438 137.125 -42.265625 137.425781 C -40.757812 137.726562 -39.257812 138.0625 -37.769531 138.4375 C -36.277344 138.808594 -34.796875 139.21875 -33.324219 139.664062 C -31.855469 140.113281 -30.394531 140.59375 -28.949219 141.113281 C -27.5 141.632812 -26.066406 142.183594 -24.648438 142.773438 C -23.226562 143.363281 -21.824219 143.984375 -20.433594 144.644531 C -19.042969 145.300781 -17.671875 145.992188 -16.316406 146.714844 C -14.960938 147.441406 -13.621094 148.199219 -12.304688 148.992188 C -10.984375 149.78125 -9.6875 150.605469 -8.410156 151.457031 C -7.132812 152.3125 -5.875 153.199219 -4.640625 154.113281 C -3.40625 155.03125 -2.195312 155.976562 -1.003906 156.953125 C 0.183594 157.929688 1.347656 158.933594 2.484375 159.964844 C 3.625 161 4.738281 162.058594 5.824219 163.148438 C 6.910156 164.234375 7.96875 165.347656 9.003906 166.488281 C 10.035156 167.628906 11.039062 168.792969 12.011719 169.980469 C 12.988281 171.171875 13.933594 172.382812 14.851562 173.617188 C 15.765625 174.851562 16.648438 176.109375 17.503906 177.390625 C 18.359375 178.667969 19.179688 179.96875 19.96875 181.285156 C 20.761719 182.605469 21.519531 183.945312 22.242188 185.300781 C 22.96875 186.65625 23.660156 188.03125 24.316406 189.421875 C 24.972656 190.8125 25.59375 192.21875 26.183594 193.636719 C 26.773438 195.058594 27.324219 196.492188 27.84375 197.941406 C 28.359375 199.390625 28.84375 200.851562 29.289062 202.324219 C 29.734375 203.792969 30.144531 205.277344 30.519531 206.769531 C 30.890625 208.261719 31.230469 209.761719 31.527344 211.269531 C 31.828125 212.777344 32.089844 214.292969 32.316406 215.8125 C 32.542969 217.335938 32.730469 218.863281 32.882812 220.394531 C 33.03125 221.921875 33.144531 223.457031 33.21875 224.992188 C 33.296875 226.53125 33.332031 228.066406 33.332031 229.605469 Z M 33.332031 229.605469 " fill-opacity="1" fill-rule="nonzero"/></g></g><path fill="#cf2e2e" d="M 111.804688 188.433594 C 112.671875 192.253906 119.097656 194.164062 125.171875 194.164062 C 129.339844 194.164062 138.019531 192.425781 138.019531 186.519531 C 138.019531 181.136719 131.597656 180.960938 124.828125 180.441406 C 115.796875 179.570312 106.078125 178.875 106.078125 168.628906 C 106.078125 159.765625 116.320312 155.769531 124.304688 155.769531 C 130.730469 155.769531 139.582031 156.8125 142.535156 164.285156 C 143.75 168.105469 137.847656 169.667969 136.804688 166.542969 C 134.894531 161.679688 127.953125 161.332031 124.132812 161.332031 C 119.269531 161.332031 111.980469 163.414062 111.980469 168.628906 C 111.980469 174.011719 118.230469 173.839844 124.828125 174.359375 C 134.027344 175.230469 143.75 176.097656 143.75 186.519531 C 143.75 197.117188 131.769531 199.550781 124.828125 199.550781 C 117.882812 199.550781 107.292969 197.8125 105.554688 189.472656 C 105.035156 185.824219 111.109375 184.089844 111.804688 188.433594 " fill-opacity="1" fill-rule="nonzero"/><path fill="#cf2e2e" d="M 172.917969 160.808594 C 163.890625 160.808594 157.640625 168.28125 157.640625 177.835938 C 157.640625 181.65625 158.679688 185.824219 161.285156 188.78125 C 164.234375 192.425781 168.75 194.339844 173.265625 194.339844 C 177.777344 194.339844 182.464844 192.773438 185.417969 188.78125 C 187.5 186 192.535156 189.125 189.582031 192.425781 C 185.417969 197.464844 179.167969 199.898438 173.089844 199.898438 C 166.839844 199.898438 160.417969 197.292969 156.25 192.425781 C 152.777344 188.085938 151.042969 182.175781 151.390625 176.097656 C 152.082031 163.761719 160.765625 155.25 173.4375 155.25 C 179.515625 155.25 184.375 157.160156 188.714844 162.371094 C 191.144531 165.152344 186.632812 168.628906 184.203125 165.847656 C 181.25 162.199219 177.082031 160.808594 172.917969 160.808594 " fill-opacity="1" fill-rule="nonzero"/><path fill="#cf2e2e" d="M 205.035156 163.242188 C 207.640625 157.683594 212.671875 156.117188 217.535156 156.117188 C 219.445312 156.117188 220.660156 157.160156 220.660156 159.070312 C 220.660156 160.984375 219.445312 161.851562 217.535156 161.851562 C 209.027344 161.851562 205.207031 168.800781 205.207031 177.140625 L 205.207031 196.074219 C 205.207031 197.8125 203.820312 199.027344 202.257812 199.027344 C 200.347656 199.027344 199.132812 197.8125 199.132812 196.074219 L 199.132812 159.070312 C 199.132812 155.421875 205.035156 155.078125 205.035156 159.070312 Z M 205.035156 163.242188 " fill-opacity="1" fill-rule="nonzero"/><path fill="#cf2e2e" d="M 233.160156 150.039062 C 233.160156 153.859375 226.910156 153.859375 226.910156 150.039062 L 226.910156 146.214844 C 226.910156 142.394531 233.160156 142.394531 233.160156 146.214844 Z M 227.082031 159.070312 C 227.082031 155.421875 233.160156 155.421875 233.160156 159.070312 L 233.160156 196.769531 C 233.160156 200.417969 227.082031 200.417969 227.082031 196.769531 Z M 227.082031 159.070312 " fill-opacity="1" fill-rule="nonzero"/><path fill="#cf2e2e" d="M 264.929688 199.722656 C 259.375 199.722656 253.820312 197.464844 251.390625 193.121094 L 251.390625 211.015625 C 251.390625 214.839844 245.3125 214.839844 245.3125 211.015625 L 245.3125 159.246094 C 245.3125 157.335938 246.527344 156.292969 248.4375 156.292969 C 250.347656 156.292969 251.214844 157.335938 251.214844 159.246094 L 251.214844 163.242188 C 253.992188 158.03125 259.894531 155.945312 264.929688 155.945312 C 267.535156 155.945312 270.3125 156.464844 272.917969 157.507812 L 272.742188 157.507812 C 281.769531 161.332031 286.457031 169.496094 286.109375 179.222656 C 285.9375 190.863281 277.429688 199.722656 264.929688 199.722656 M 251.390625 174.535156 L 251.390625 181.136719 C 251.390625 188.433594 257.117188 193.644531 264.582031 193.992188 C 270.484375 193.992188 276.390625 190.863281 278.820312 185.132812 C 279.515625 183.394531 280.035156 181.136719 280.035156 178.875 C 280.207031 173.492188 278.296875 168.453125 273.785156 164.632812 C 271.355469 162.71875 268.402344 161.679688 265.277344 161.503906 C 257.8125 161.503906 251.390625 166.367188 251.390625 174.535156 " fill-opacity="1" fill-rule="nonzero"/><path fill="#cf2e2e" d="M 316.667969 199.722656 C 311.109375 199.722656 305.554688 197.464844 303.125 193.121094 L 303.125 211.015625 C 303.125 214.839844 297.046875 214.839844 297.046875 211.015625 L 297.046875 159.246094 C 297.046875 157.335938 298.265625 156.292969 300.171875 156.292969 C 302.082031 156.292969 302.953125 157.335938 302.953125 159.246094 L 302.953125 163.242188 C 305.730469 158.03125 311.632812 155.945312 316.667969 155.945312 C 319.269531 155.945312 322.046875 156.464844 324.652344 157.507812 L 324.480469 157.507812 C 333.507812 161.332031 338.195312 169.496094 337.847656 179.222656 C 337.671875 190.863281 329.167969 199.722656 316.667969 199.722656 M 303.125 174.535156 L 303.125 181.136719 C 303.125 188.433594 308.855469 193.644531 316.320312 193.992188 C 322.222656 193.992188 328.125 190.863281 330.554688 185.132812 C 331.25 183.394531 331.769531 181.136719 331.769531 178.875 C 331.945312 173.492188 330.035156 168.453125 325.519531 164.632812 C 323.089844 162.71875 320.140625 161.679688 317.015625 161.503906 C 309.546875 161.503906 303.125 166.367188 303.125 174.535156 " fill-opacity="1" fill-rule="nonzero"/><path fill="#cf2e2e" d="M 365.625 156.292969 C 369.445312 156.292969 369.445312 161.503906 365.625 161.503906 L 356.597656 161.503906 L 356.597656 184.089844 C 356.597656 188.78125 357.292969 193.816406 363.019531 193.816406 C 364.234375 193.816406 366.144531 193.46875 367.015625 192.949219 C 370.484375 190.863281 373.265625 195.902344 369.445312 197.988281 C 367.359375 199.203125 365.277344 199.375 363.019531 199.375 C 352.953125 199.375 350.519531 192.082031 350.519531 184.089844 L 350.519531 161.503906 L 344.964844 161.503906 C 340.972656 161.503906 341.320312 156.292969 344.964844 156.292969 L 350.519531 156.292969 L 350.519531 146.5625 C 350.519531 142.566406 356.597656 142.566406 356.597656 146.5625 L 356.597656 156.292969 C 356.597656 156.292969 365.625 156.292969 365.625 156.292969 Z M 365.625 156.292969 " fill-opacity="1" fill-rule="nonzero"/></svg>