<svg xmlns="http://www.w3.org/2000/svg" xmlns:xlink="http://www.w3.org/1999/xlink" width="500" zoomAndPan="magnify" viewBox="0 0 375 374.999991" height="500" preserveAspectRatio="xMidYMid meet" version="1.0"><defs><clipPath id="f813635081"><path d="M 85 41 L 290 41 L 290 334 L 85 334 Z M 85 41 " clip-rule="nonzero"/></clipPath><clipPath id="bcd0d5db77"><path d="M 263.347656 147.734375 C 270.304688 147.734375 276.472656 151.109375 281.832031 157.875 C 287.207031 164.640625 289.792969 173.582031 289.792969 184.707031 C 289.792969 195.042969 286.207031 206.777344 279.054688 220.097656 C 273.847656 229.945312 267.277344 238.890625 259.457031 246.929688 C 255.097656 251.429688 255.679688 258.777344 260.292969 263 L 282.332031 283.195312 C 287.554688 287.972656 287.054688 296.167969 281.582031 300.652344 C 256.332031 321.359375 224.109375 333.804688 188.804688 333.804688 C 148.445312 333.804688 111.667969 317.5 85.222656 291.054688 C 92.582031 293.042969 100.332031 294.042969 108.484375 294.042969 C 149.640625 294.042969 183.832031 267 211.265625 212.734375 L 225.375 184.5 C 237.695312 160.054688 250.417969 147.734375 263.347656 147.734375 M 275.472656 69.804688 C 251.222656 51.722656 221.207031 41.179688 188.792969 41.179688 C 150.332031 41.179688 115.277344 55.957031 89.375 80.234375 C 84.820312 84.515625 85.015625 91.859375 89.429688 96.292969 L 112.195312 119.054688 C 116.542969 123.402344 116.472656 130.304688 112.390625 134.902344 C 96.445312 152.875 88.582031 169.445312 88.582031 184.515625 C 88.582031 193.859375 90.582031 201.207031 94.554688 206.582031 C 98.542969 211.945312 103.5 214.542969 109.472656 214.542969 C 114.042969 214.542969 118.222656 212.945312 122 209.570312 C 125.777344 206.195312 130.945312 197.832031 137.515625 184.527344 L 153.015625 153.707031 C 168.917969 121.109375 185.222656 98.832031 201.929688 86.707031 C 218.625 74.582031 238.109375 68.609375 260.570312 68.609375 C 265.734375 68.609375 270.707031 69.015625 275.472656 69.804688 " clip-rule="nonzero"/></clipPath><clipPath id="40f5386234"><path d="M 85 86 L 290 86 L 290 334 L 85 334 Z M 85 86 " clip-rule="nonzero"/></clipPath><clipPath id="ab3cfef2ad"><path d="M 263.347656 147.734375 C 270.304688 147.734375 276.472656 151.109375 281.832031 157.875 C 287.207031 164.640625 289.792969 173.582031 289.792969 184.707031 C 289.792969 195.042969 286.207031 206.777344 279.054688 220.097656 C 273.847656 229.945312 267.277344 238.890625 259.457031 246.929688 C 255.097656 251.429688 255.679688 258.777344 260.292969 263 L 282.332031 283.195312 C 287.554688 287.972656 287.054688 296.167969 281.582031 300.652344 C 256.332031 321.359375 224.109375 333.804688 188.804688 333.804688 C 148.445312 333.804688 111.667969 317.5 85.222656 291.054688 C 92.582031 293.042969 100.332031 294.042969 108.484375 294.042969 C 149.640625 294.042969 183.832031 267 211.265625 212.734375 L 225.375 184.5 C 237.695312 160.054688 250.417969 147.734375 263.347656 147.734375 M 275.472656 69.804688 C 251.222656 51.722656 221.207031 41.179688 188.792969 41.179688 C 150.332031 41.179688 115.277344 55.957031 89.375 80.234375 C 84.820312 84.515625 85.015625 91.859375 89.429688 96.292969 L 112.195312 119.054688 C 116.542969 123.402344 116.472656 130.304688 112.390625 134.902344 C 96.445312 152.875 88.582031 169.445312 88.582031 184.515625 C 88.582031 193.859375 90.582031 201.207031 94.554688 206.582031 C 98.542969 211.945312 103.5 214.542969 109.472656 214.542969 C 114.042969 214.542969 118.222656 212.945312 122 209.570312 C 125.777344 206.195312 130.945312 197.832031 137.515625 184.527344 L 153.015625 153.707031 C 168.917969 121.109375 185.222656 98.832031 201.929688 86.707031 C 218.625 74.582031 238.109375 68.609375 260.570312 68.609375 C 265.734375 68.609375 270.707031 69.015625 275.472656 69.804688 " clip-rule="nonzero"/></clipPath><clipPath id="932bd4b0ff"><path d="M 85 94 L 257 94 L 257 334 L 85 334 Z M 85 94 " clip-rule="nonzero"/></clipPath><clipPath id="39d914d472"><path d="M 263.347656 147.734375 C 270.304688 147.734375 276.472656 151.109375 281.832031 157.875 C 287.207031 164.640625 289.792969 173.582031 289.792969 184.707031 C 289.792969 195.042969 286.207031 206.777344 279.054688 220.097656 C 273.847656 229.945312 267.277344 238.890625 259.457031 246.929688 C 255.097656 251.429688 255.679688 258.777344 260.292969 263 L 282.332031 283.195312 C 287.554688 287.972656 287.054688 296.167969 281.582031 300.652344 C 256.332031 321.359375 224.109375 333.804688 188.804688 333.804688 C 148.445312 333.804688 111.667969 317.5 85.222656 291.054688 C 92.582031 293.042969 100.332031 294.042969 108.484375 294.042969 C 149.640625 294.042969 183.832031 267 211.265625 212.734375 L 225.375 184.5 C 237.695312 160.054688 250.417969 147.734375 263.347656 147.734375 M 275.472656 69.804688 C 251.222656 51.722656 221.207031 41.179688 188.792969 41.179688 C 150.332031 41.179688 115.277344 55.957031 89.375 80.234375 C 84.820312 84.515625 85.015625 91.859375 89.429688 96.292969 L 112.195312 119.054688 C 116.542969 123.402344 116.472656 130.304688 112.390625 134.902344 C 96.445312 152.875 88.582031 169.445312 88.582031 184.515625 C 88.582031 193.859375 90.582031 201.207031 94.554688 206.582031 C 98.542969 211.945312 103.5 214.542969 109.472656 214.542969 C 114.042969 214.542969 118.222656 212.945312 122 209.570312 C 125.777344 206.195312 130.945312 197.832031 137.515625 184.527344 L 153.015625 153.707031 C 168.917969 121.109375 185.222656 98.832031 201.929688 86.707031 C 218.625 74.582031 238.109375 68.609375 260.570312 68.609375 C 265.734375 68.609375 270.707031 69.015625 275.472656 69.804688 " clip-rule="nonzero"/></clipPath><clipPath id="0664d98b39"><path d="M 85 72 L 168 72 L 168 334 L 85 334 Z M 85 72 " clip-rule="nonzero"/></clipPath><clipPath id="febd6241b1"><path d="M 263.347656 147.734375 C 270.304688 147.734375 276.472656 151.109375 281.832031 157.875 C 287.207031 164.640625 289.792969 173.582031 289.792969 184.707031 C 289.792969 195.042969 286.207031 206.777344 279.054688 220.097656 C 273.847656 229.945312 267.277344 238.890625 259.457031 246.929688 C 255.097656 251.429688 255.679688 258.777344 260.292969 263 L 282.332031 283.195312 C 287.554688 287.972656 287.054688 296.167969 281.582031 300.652344 C 256.332031 321.359375 224.109375 333.804688 188.804688 333.804688 C 148.445312 333.804688 111.667969 317.5 85.222656 291.054688 C 92.582031 293.042969 100.332031 294.042969 108.484375 294.042969 C 149.640625 294.042969 183.832031 267 211.265625 212.734375 L 225.375 184.5 C 237.695312 160.054688 250.417969 147.734375 263.347656 147.734375 M 275.472656 69.804688 C 251.222656 51.722656 221.207031 41.179688 188.792969 41.179688 C 150.332031 41.179688 115.277344 55.957031 89.375 80.234375 C 84.820312 84.515625 85.015625 91.859375 89.429688 96.292969 L 112.195312 119.054688 C 116.542969 123.402344 116.472656 130.304688 112.390625 134.902344 C 96.445312 152.875 88.582031 169.445312 88.582031 184.515625 C 88.582031 193.859375 90.582031 201.207031 94.554688 206.582031 C 98.542969 211.945312 103.5 214.542969 109.472656 214.542969 C 114.042969 214.542969 118.222656 212.945312 122 209.570312 C 125.777344 206.195312 130.945312 197.832031 137.515625 184.527344 L 153.015625 153.707031 C 168.917969 121.109375 185.222656 98.832031 201.929688 86.707031 C 218.625 74.582031 238.109375 68.609375 260.570312 68.609375 C 265.734375 68.609375 270.707031 69.015625 275.472656 69.804688 " clip-rule="nonzero"/></clipPath></defs><path fill="#ffffff" d="M 263.347656 147.734375 C 270.304688 147.734375 276.472656 151.109375 281.832031 157.875 C 287.207031 164.640625 289.792969 173.582031 289.792969 184.707031 C 289.792969 195.042969 286.207031 206.777344 279.054688 220.097656 C 273.847656 229.945312 267.277344 238.890625 259.457031 246.929688 C 255.097656 251.429688 255.679688 258.777344 260.292969 263 L 282.332031 283.195312 C 287.554688 287.972656 287.054688 296.167969 281.582031 300.652344 C 256.332031 321.359375 224.109375 333.804688 188.804688 333.804688 C 148.445312 333.804688 111.667969 317.5 85.222656 291.054688 C 92.582031 293.042969 100.332031 294.042969 108.484375 294.042969 C 149.640625 294.042969 183.832031 267 211.265625 212.734375 L 225.375 184.5 C 237.695312 160.054688 250.417969 147.734375 263.347656 147.734375 M 275.472656 69.804688 C 251.222656 51.722656 221.207031 41.179688 188.792969 41.179688 C 150.332031 41.179688 115.277344 55.957031 89.375 80.234375 C 84.820312 84.515625 85.015625 91.859375 89.429688 96.292969 L 112.195312 119.054688 C 116.542969 123.402344 116.472656 130.304688 112.390625 134.902344 C 96.445312 152.875 88.582031 169.445312 88.582031 184.515625 C 88.582031 193.859375 90.582031 201.207031 94.554688 206.582031 C 98.542969 211.945312 103.5 214.542969 109.472656 214.542969 C 114.042969 214.542969 118.222656 212.945312 122 209.570312 C 125.777344 206.195312 130.945312 197.832031 137.515625 184.527344 L 153.015625 153.707031 C 168.917969 121.109375 185.222656 98.832031 201.929688 86.707031 C 218.625 74.582031 238.109375 68.609375 260.570312 68.609375 C 265.734375 68.609375 270.707031 69.015625 275.472656 69.804688 " fill-opacity="1" fill-rule="nonzero"/><g clip-path="url(#f813635081)"><g clip-path="url(#bcd0d5db77)"><path fill="#ffffff" d="M 357.859375 260.484375 C 357.859375 265.328125 357.742188 270.164062 357.503906 275 C 357.265625 279.835938 356.910156 284.664062 356.4375 289.480469 C 355.960938 294.296875 355.371094 299.101562 354.660156 303.890625 C 353.949219 308.679688 353.121094 313.445312 352.175781 318.195312 C 351.234375 322.941406 350.171875 327.664062 348.996094 332.359375 C 347.820312 337.058594 346.527344 341.722656 345.125 346.355469 C 343.71875 350.988281 342.199219 355.582031 340.570312 360.140625 C 338.9375 364.699219 337.195312 369.214844 335.34375 373.6875 C 333.492188 378.160156 331.53125 382.582031 329.460938 386.960938 C 327.390625 391.335938 325.214844 395.660156 322.933594 399.929688 C 320.652344 404.199219 318.265625 408.410156 315.777344 412.558594 C 313.289062 416.710938 310.699219 420.800781 308.007812 424.828125 C 305.320312 428.851562 302.53125 432.808594 299.648438 436.695312 C 296.765625 440.585938 293.789062 444.402344 290.714844 448.144531 C 287.644531 451.886719 284.484375 455.550781 281.234375 459.136719 C 277.980469 462.722656 274.644531 466.230469 271.222656 469.652344 C 267.796875 473.074219 264.292969 476.414062 260.707031 479.664062 C 257.121094 482.914062 253.453125 486.074219 249.710938 489.148438 C 245.96875 492.21875 242.15625 495.195312 238.265625 498.078125 C 234.378906 500.964844 230.421875 503.75 226.394531 506.4375 C 222.371094 509.128906 218.28125 511.71875 214.128906 514.207031 C 209.976562 516.695312 205.765625 519.082031 201.496094 521.363281 C 197.226562 523.644531 192.90625 525.820312 188.527344 527.890625 C 184.152344 529.960938 179.726562 531.921875 175.253906 533.773438 C 170.78125 535.628906 166.265625 537.367188 161.710938 539 C 157.152344 540.632812 152.554688 542.148438 147.921875 543.554688 C 143.289062 544.960938 138.625 546.25 133.929688 547.425781 C 129.234375 548.601562 124.511719 549.664062 119.765625 550.609375 C 115.015625 551.550781 110.246094 552.378906 105.460938 553.089844 C 100.671875 553.800781 95.867188 554.394531 91.050781 554.867188 C 86.230469 555.339844 81.40625 555.699219 76.570312 555.933594 C 71.734375 556.171875 66.898438 556.292969 62.054688 556.292969 C 57.214844 556.292969 52.375 556.171875 47.542969 555.933594 C 42.707031 555.699219 37.878906 555.339844 33.0625 554.867188 C 28.242188 554.394531 23.441406 553.800781 18.652344 553.089844 C 13.863281 552.378906 9.09375 551.550781 4.347656 550.609375 C -0.402344 549.664062 -5.125 548.601562 -9.820312 547.425781 C -14.515625 546.25 -19.179688 544.960938 -23.8125 543.554688 C -28.445312 542.148438 -33.039062 540.628906 -37.597656 539 C -42.15625 537.367188 -46.671875 535.628906 -51.144531 533.773438 C -55.617188 531.921875 -60.042969 529.960938 -64.417969 527.890625 C -68.792969 525.820312 -73.117188 523.644531 -77.386719 521.363281 C -81.65625 519.082031 -85.867188 516.695312 -90.019531 514.207031 C -94.171875 511.71875 -98.261719 509.128906 -102.285156 506.4375 C -106.308594 503.75 -110.265625 500.964844 -114.15625 498.078125 C -118.042969 495.195312 -121.859375 492.21875 -125.601562 489.148438 C -129.34375 486.074219 -133.007812 482.914062 -136.59375 479.664062 C -140.183594 476.414062 -143.6875 473.074219 -147.109375 469.652344 C -150.535156 466.230469 -153.871094 462.722656 -157.121094 459.136719 C -160.371094 455.550781 -163.535156 451.886719 -166.605469 448.144531 C -169.675781 444.402344 -172.652344 440.585938 -175.539062 436.695312 C -178.421875 432.808594 -181.207031 428.851562 -183.898438 424.828125 C -186.585938 420.800781 -189.175781 416.710938 -191.664062 412.558594 C -194.152344 408.40625 -196.539062 404.199219 -198.820312 399.929688 C -201.105469 395.660156 -203.28125 391.335938 -205.347656 386.960938 C -207.417969 382.582031 -209.378906 378.160156 -211.234375 373.6875 C -213.085938 369.214844 -214.828125 364.699219 -216.457031 360.140625 C -218.089844 355.582031 -219.605469 350.988281 -221.011719 346.355469 C -222.417969 341.722656 -223.707031 337.058594 -224.886719 332.359375 C -226.0625 327.664062 -227.121094 322.941406 -228.066406 318.195312 C -229.011719 313.445312 -229.839844 308.679688 -230.546875 303.890625 C -231.257812 299.101562 -231.851562 294.296875 -232.324219 289.480469 C -232.800781 284.664062 -233.15625 279.835938 -233.394531 275 C -233.632812 270.164062 -233.75 265.328125 -233.75 260.484375 C -233.75 255.644531 -233.632812 250.808594 -233.394531 245.972656 C -233.15625 241.136719 -232.800781 236.308594 -232.324219 231.492188 C -231.851562 226.675781 -231.257812 221.871094 -230.546875 217.082031 C -229.839844 212.292969 -229.011719 207.523438 -228.066406 202.777344 C -227.121094 198.027344 -226.0625 193.308594 -224.886719 188.609375 C -223.707031 183.914062 -222.417969 179.25 -221.011719 174.617188 C -219.605469 169.984375 -218.089844 165.390625 -216.457031 160.832031 C -214.828125 156.273438 -213.085938 151.757812 -211.234375 147.285156 C -209.378906 142.8125 -207.417969 138.390625 -205.347656 134.011719 C -203.28125 129.636719 -201.105469 125.3125 -198.820312 121.042969 C -196.539062 116.773438 -194.152344 112.5625 -191.664062 108.410156 C -189.175781 104.257812 -186.585938 100.171875 -183.898438 96.144531 C -181.207031 92.121094 -178.421875 88.164062 -175.539062 84.273438 C -172.652344 80.386719 -169.675781 76.570312 -166.605469 72.828125 C -163.535156 69.085938 -160.371094 65.421875 -157.121094 61.835938 C -153.871094 58.25 -150.535156 54.742188 -147.109375 51.320312 C -143.6875 47.898438 -140.183594 44.558594 -136.59375 41.308594 C -133.007812 38.058594 -129.34375 34.894531 -125.601562 31.824219 C -121.859375 28.753906 -118.042969 25.777344 -114.15625 22.894531 C -110.265625 20.007812 -106.308594 17.222656 -102.285156 14.53125 C -98.261719 11.84375 -94.171875 9.253906 -90.019531 6.765625 C -85.867188 4.277344 -81.65625 1.890625 -77.386719 -0.390625 C -73.117188 -2.671875 -68.792969 -4.847656 -64.417969 -6.917969 C -60.042969 -8.988281 -55.617188 -10.949219 -51.144531 -12.800781 C -46.671875 -14.65625 -42.15625 -16.398438 -37.597656 -18.027344 C -33.039062 -19.660156 -28.445312 -21.175781 -23.8125 -22.582031 C -19.179688 -23.988281 -14.515625 -25.277344 -9.820312 -26.453125 C -5.125 -27.628906 -0.402344 -28.691406 4.347656 -29.636719 C 9.09375 -30.578125 13.863281 -31.40625 18.652344 -32.117188 C 23.441406 -32.828125 28.242188 -33.421875 33.0625 -33.894531 C 37.878906 -34.371094 42.707031 -34.726562 47.542969 -34.964844 C 52.375 -35.199219 57.214844 -35.320312 62.054688 -35.320312 C 66.898438 -35.320312 71.734375 -35.199219 76.570312 -34.964844 C 81.40625 -34.726562 86.230469 -34.371094 91.050781 -33.894531 C 95.867188 -33.421875 100.671875 -32.828125 105.460938 -32.117188 C 110.246094 -31.40625 115.015625 -30.578125 119.765625 -29.636719 C 124.511719 -28.691406 129.234375 -27.628906 133.929688 -26.453125 C 138.625 -25.277344 143.289062 -23.988281 147.921875 -22.582031 C 152.554688 -21.175781 157.152344 -19.660156 161.710938 -18.027344 C 166.265625 -16.398438 170.78125 -14.65625 175.253906 -12.800781 C 179.726562 -10.949219 184.152344 -8.988281 188.527344 -6.917969 C 192.90625 -4.847656 197.226562 -2.671875 201.496094 -0.390625 C 205.765625 1.890625 209.976562 4.277344 214.128906 6.765625 C 218.28125 9.253906 222.371094 11.84375 226.394531 14.53125 C 230.421875 17.222656 234.378906 20.007812 238.265625 22.894531 C 242.15625 25.777344 245.96875 28.753906 249.710938 31.824219 C 253.453125 34.894531 257.121094 38.058594 260.707031 41.308594 C 264.292969 44.558594 267.796875 47.898438 271.222656 51.320312 C 274.644531 54.742188 277.980469 58.25 281.234375 61.835938 C 284.484375 65.421875 287.644531 69.085938 290.714844 72.828125 C 293.789062 76.570312 296.765625 80.386719 299.648438 84.273438 C 302.53125 88.164062 305.320312 92.121094 308.007812 96.144531 C 310.699219 100.171875 313.289062 104.257812 315.777344 108.410156 C 318.265625 112.5625 320.652344 116.773438 322.933594 121.042969 C 325.214844 125.3125 327.390625 129.636719 329.460938 134.011719 C 331.53125 138.390625 333.492188 142.8125 335.34375 147.285156 C 337.195312 151.757812 338.9375 156.273438 340.570312 160.832031 C 342.199219 165.390625 343.71875 169.984375 345.125 174.617188 C 346.527344 179.25 347.820312 183.914062 348.996094 188.609375 C 350.171875 193.308594 351.234375 198.027344 352.175781 202.777344 C 353.121094 207.523438 353.949219 212.292969 354.660156 217.082031 C 355.371094 221.871094 355.960938 226.675781 356.4375 231.492188 C 356.910156 236.308594 357.265625 241.136719 357.503906 245.972656 C 357.742188 250.808594 357.859375 255.644531 357.859375 260.484375 Z M 357.859375 260.484375 " fill-opacity="1" fill-rule="nonzero"/></g></g><g clip-path="url(#40f5386234)"><g clip-path="url(#ab3cfef2ad)"><path fill="#ffffff" d="M 388.082031 381.804688 C 388.082031 386.648438 387.964844 391.484375 387.726562 396.320312 C 387.488281 401.15625 387.132812 405.980469 386.660156 410.800781 C 386.183594 415.617188 385.59375 420.421875 384.882812 425.210938 C 384.171875 429.996094 383.34375 434.765625 382.398438 439.515625 C 381.453125 444.261719 380.394531 448.984375 379.21875 453.679688 C 378.042969 458.375 376.75 463.039062 375.347656 467.671875 C 373.941406 472.304688 372.421875 476.902344 370.792969 481.460938 C 369.160156 486.015625 367.417969 490.53125 365.566406 495.003906 C 363.714844 499.476562 361.753906 503.902344 359.683594 508.277344 C 357.613281 512.65625 355.4375 516.976562 353.15625 521.246094 C 350.871094 525.515625 348.488281 529.726562 346 533.878906 C 343.511719 538.03125 340.921875 542.121094 338.230469 546.144531 C 335.542969 550.171875 332.753906 554.128906 329.871094 558.015625 C 326.988281 561.90625 324.007812 565.71875 320.9375 569.460938 C 317.867188 573.203125 314.707031 576.871094 311.457031 580.457031 C 308.203125 584.042969 304.867188 587.546875 301.445312 590.972656 C 298.019531 594.394531 294.515625 597.730469 290.929688 600.984375 C 287.339844 604.234375 283.675781 607.394531 279.933594 610.464844 C 276.191406 613.539062 272.378906 616.515625 268.488281 619.398438 C 264.601562 622.28125 260.644531 625.070312 256.617188 627.757812 C 252.59375 630.449219 248.503906 633.039062 244.351562 635.527344 C 240.199219 638.015625 235.988281 640.402344 231.71875 642.683594 C 227.449219 644.964844 223.128906 647.140625 218.75 649.210938 C 214.375 651.28125 209.949219 653.242188 205.476562 655.09375 C 201.003906 656.945312 196.488281 658.6875 191.929688 660.320312 C 187.375 661.949219 182.777344 663.46875 178.144531 664.875 C 173.511719 666.277344 168.847656 667.570312 164.152344 668.746094 C 159.457031 669.921875 154.734375 670.984375 149.988281 671.925781 C 145.238281 672.871094 140.46875 673.699219 135.679688 674.410156 C 130.894531 675.121094 126.089844 675.710938 121.273438 676.1875 C 116.453125 676.660156 111.628906 677.015625 106.792969 677.253906 C 101.957031 677.492188 97.117188 677.609375 92.277344 677.609375 C 87.4375 677.609375 82.597656 677.492188 77.761719 677.253906 C 72.929688 677.015625 68.101562 676.660156 63.285156 676.1875 C 58.464844 675.710938 53.664062 675.121094 48.875 674.410156 C 44.085938 673.699219 39.316406 672.871094 34.570312 671.925781 C 29.820312 670.984375 25.097656 669.921875 20.402344 668.746094 C 15.707031 667.570312 11.042969 666.277344 6.410156 664.875 C 1.777344 663.46875 -2.816406 661.949219 -7.375 660.320312 C -11.933594 658.6875 -16.449219 656.945312 -20.921875 655.09375 C -25.394531 653.242188 -29.820312 651.28125 -34.195312 649.210938 C -38.570312 647.140625 -42.894531 644.964844 -47.164062 642.683594 C -51.433594 640.402344 -55.644531 638.015625 -59.796875 635.527344 C -63.949219 633.039062 -68.039062 630.449219 -72.0625 627.757812 C -76.089844 625.070312 -80.046875 622.28125 -83.933594 619.398438 C -87.820312 616.515625 -91.636719 613.539062 -95.378906 610.464844 C -99.121094 607.394531 -102.785156 604.234375 -106.375 600.984375 C -109.960938 597.730469 -113.464844 594.394531 -116.886719 590.972656 C -120.3125 587.546875 -123.648438 584.042969 -126.898438 580.457031 C -130.152344 576.871094 -133.3125 573.203125 -136.382812 569.460938 C -139.453125 565.71875 -142.429688 561.90625 -145.316406 558.015625 C -148.199219 554.128906 -150.984375 550.171875 -153.675781 546.144531 C -156.363281 542.121094 -158.953125 538.03125 -161.441406 533.878906 C -163.933594 529.726562 -166.316406 525.515625 -168.597656 521.246094 C -170.882812 516.976562 -173.058594 512.65625 -175.128906 508.277344 C -177.195312 503.902344 -179.160156 499.476562 -181.011719 495.003906 C -182.863281 490.53125 -184.605469 486.015625 -186.234375 481.460938 C -187.867188 476.902344 -189.386719 472.304688 -190.789062 467.671875 C -192.195312 463.039062 -193.488281 458.375 -194.664062 453.679688 C -195.839844 448.984375 -196.898438 444.261719 -197.84375 439.515625 C -198.789062 434.765625 -199.617188 429.996094 -200.324219 425.210938 C -201.035156 420.421875 -201.628906 415.617188 -202.101562 410.800781 C -202.578125 405.980469 -202.933594 401.15625 -203.171875 396.320312 C -203.410156 391.484375 -203.527344 386.648438 -203.527344 381.804688 C -203.527344 376.964844 -203.410156 372.125 -203.171875 367.289062 C -202.933594 362.457031 -202.578125 357.628906 -202.101562 352.8125 C -201.628906 347.992188 -201.035156 343.191406 -200.324219 338.402344 C -199.617188 333.613281 -198.789062 328.84375 -197.84375 324.097656 C -196.898438 319.347656 -195.839844 314.625 -194.664062 309.929688 C -193.488281 305.234375 -192.195312 300.570312 -190.789062 295.9375 C -189.386719 291.304688 -187.867188 286.710938 -186.234375 282.152344 C -184.605469 277.59375 -182.863281 273.078125 -181.011719 268.605469 C -179.160156 264.132812 -177.195312 259.707031 -175.128906 255.332031 C -173.058594 250.957031 -170.882812 246.632812 -168.597656 242.363281 C -166.316406 238.09375 -163.933594 233.882812 -161.441406 229.730469 C -158.953125 225.578125 -156.363281 221.488281 -153.675781 217.464844 C -150.984375 213.441406 -148.199219 209.484375 -145.316406 205.59375 C -142.429688 201.707031 -139.453125 197.890625 -136.382812 194.148438 C -133.3125 190.40625 -130.152344 186.742188 -126.898438 183.15625 C -123.648438 179.566406 -120.3125 176.0625 -116.886719 172.640625 C -113.464844 169.214844 -109.960938 165.878906 -106.375 162.628906 C -102.785156 159.378906 -99.121094 156.214844 -95.378906 153.144531 C -91.636719 150.074219 -87.820312 147.097656 -83.933594 144.210938 C -80.046875 141.328125 -76.089844 138.542969 -72.0625 135.851562 C -68.039062 133.164062 -63.949219 130.574219 -59.796875 128.085938 C -55.644531 125.597656 -51.433594 123.210938 -47.164062 120.929688 C -42.894531 118.644531 -38.570312 116.46875 -34.195312 114.402344 C -29.820312 112.332031 -25.394531 110.371094 -20.921875 108.515625 C -16.449219 106.664062 -11.933594 104.921875 -7.375 103.292969 C -2.816406 101.660156 1.777344 100.140625 6.410156 98.738281 C 11.042969 97.332031 15.707031 96.042969 20.402344 94.863281 C 25.097656 93.6875 29.820312 92.628906 34.570312 91.683594 C 39.316406 90.738281 44.085938 89.910156 48.875 89.203125 C 53.664062 88.492188 58.464844 87.898438 63.285156 87.425781 C 68.101562 86.949219 72.929688 86.59375 77.761719 86.355469 C 82.597656 86.117188 87.4375 86 92.277344 86 C 97.117188 86 101.957031 86.117188 106.792969 86.355469 C 111.628906 86.59375 116.453125 86.949219 121.273438 87.425781 C 126.089844 87.898438 130.894531 88.492188 135.679688 89.203125 C 140.46875 89.910156 145.238281 90.738281 149.988281 91.683594 C 154.734375 92.628906 159.457031 93.6875 164.152344 94.863281 C 168.847656 96.042969 173.511719 97.332031 178.144531 98.738281 C 182.777344 100.140625 187.375 101.660156 191.929688 103.292969 C 196.488281 104.921875 201.003906 106.664062 205.476562 108.515625 C 209.949219 110.371094 214.375 112.332031 218.75 114.402344 C 223.128906 116.46875 227.449219 118.644531 231.71875 120.929688 C 235.988281 123.210938 240.199219 125.597656 244.351562 128.085938 C 248.503906 130.574219 252.59375 133.164062 256.617188 135.851562 C 260.644531 138.542969 264.601562 141.328125 268.488281 144.210938 C 272.378906 147.097656 276.191406 150.074219 279.933594 153.144531 C 283.675781 156.214844 287.339844 159.378906 290.929688 162.628906 C 294.515625 165.878906 298.019531 169.214844 301.445312 172.640625 C 304.867188 176.0625 308.203125 179.566406 311.457031 183.15625 C 314.707031 186.742188 317.867188 190.40625 320.9375 194.148438 C 324.007812 197.890625 326.988281 201.707031 329.871094 205.59375 C 332.753906 209.484375 335.542969 213.441406 338.230469 217.464844 C 340.921875 221.488281 343.511719 225.578125 346 229.730469 C 348.488281 233.882812 350.871094 238.09375 353.15625 242.363281 C 355.4375 246.632812 357.613281 250.957031 359.683594 255.332031 C 361.753906 259.707031 363.714844 264.132812 365.566406 268.605469 C 367.417969 273.078125 369.160156 277.59375 370.792969 282.152344 C 372.421875 286.710938 373.941406 291.304688 375.347656 295.9375 C 376.75 300.570312 378.042969 305.234375 379.21875 309.929688 C 380.394531 314.625 381.453125 319.347656 382.398438 324.097656 C 383.34375 328.84375 384.171875 333.613281 384.882812 338.402344 C 385.59375 343.191406 386.183594 347.992188 386.660156 352.8125 C 387.132812 357.628906 387.488281 362.457031 387.726562 367.289062 C 387.964844 372.125 388.082031 376.964844 388.082031 381.804688 Z M 388.082031 381.804688 " fill-opacity="1" fill-rule="nonzero"/></g></g><g clip-path="url(#932bd4b0ff)"><g clip-path="url(#39d914d472)"><path fill="#ffffff" d="M 256.179688 355.515625 C 256.179688 359.789062 256.074219 364.0625 255.867188 368.332031 C 255.65625 372.605469 255.339844 376.867188 254.921875 381.121094 C 254.503906 385.378906 253.980469 389.621094 253.351562 393.847656 C 252.726562 398.078125 251.996094 402.289062 251.160156 406.484375 C 250.328125 410.675781 249.390625 414.847656 248.351562 418.996094 C 247.3125 423.144531 246.171875 427.261719 244.929688 431.355469 C 243.6875 435.445312 242.347656 439.503906 240.90625 443.53125 C 239.46875 447.558594 237.929688 451.546875 236.292969 455.496094 C 234.65625 459.445312 232.925781 463.351562 231.097656 467.21875 C 229.269531 471.082031 227.347656 474.902344 225.332031 478.671875 C 223.316406 482.445312 221.207031 486.164062 219.011719 489.832031 C 216.8125 493.496094 214.523438 497.109375 212.148438 500.664062 C 209.773438 504.21875 207.3125 507.714844 204.765625 511.148438 C 202.21875 514.582031 199.589844 517.953125 196.875 521.257812 C 194.164062 524.5625 191.371094 527.800781 188.5 530.96875 C 185.628906 534.136719 182.679688 537.230469 179.65625 540.253906 C 176.632812 543.277344 173.539062 546.226562 170.371094 549.097656 C 167.203125 551.96875 163.964844 554.761719 160.660156 557.472656 C 157.355469 560.1875 153.984375 562.816406 150.550781 565.363281 C 147.117188 567.910156 143.621094 570.371094 140.066406 572.746094 C 136.511719 575.121094 132.902344 577.410156 129.234375 579.605469 C 125.566406 581.804688 121.847656 583.914062 118.074219 585.929688 C 114.304688 587.945312 110.488281 589.867188 106.621094 591.695312 C 102.757812 593.523438 98.847656 595.253906 94.898438 596.890625 C 90.949219 598.527344 86.960938 600.066406 82.933594 601.503906 C 78.90625 602.945312 74.847656 604.285156 70.757812 605.527344 C 66.664062 606.769531 62.546875 607.910156 58.398438 608.949219 C 54.25 609.988281 50.082031 610.921875 45.886719 611.757812 C 41.691406 612.589844 37.480469 613.324219 33.253906 613.949219 C 29.023438 614.578125 24.78125 615.101562 20.523438 615.519531 C 16.269531 615.9375 12.007812 616.253906 7.734375 616.464844 C 3.464844 616.671875 -0.808594 616.777344 -5.082031 616.777344 C -9.359375 616.777344 -13.632812 616.671875 -17.902344 616.464844 C -22.171875 616.253906 -26.4375 615.9375 -30.691406 615.519531 C -34.945312 615.101562 -39.1875 614.578125 -43.417969 613.949219 C -47.648438 613.324219 -51.859375 612.589844 -56.054688 611.757812 C -60.246094 610.921875 -64.417969 609.988281 -68.566406 608.949219 C -72.714844 607.910156 -76.832031 606.769531 -80.925781 605.527344 C -85.015625 604.285156 -89.074219 602.945312 -93.101562 601.503906 C -97.125 600.066406 -101.113281 598.527344 -105.066406 596.890625 C -109.015625 595.253906 -112.921875 593.523438 -116.789062 591.695312 C -120.652344 589.867188 -124.472656 587.945312 -128.242188 585.929688 C -132.011719 583.914062 -135.730469 581.804688 -139.398438 579.605469 C -143.066406 577.410156 -146.679688 575.121094 -150.234375 572.746094 C -153.789062 570.371094 -157.285156 567.910156 -160.71875 565.363281 C -164.152344 562.816406 -167.523438 560.1875 -170.828125 557.472656 C -174.132812 554.761719 -177.371094 551.96875 -180.539062 549.097656 C -183.707031 546.226562 -186.800781 543.277344 -189.824219 540.253906 C -192.847656 537.230469 -195.796875 534.136719 -198.667969 530.96875 C -201.539062 527.800781 -204.332031 524.5625 -207.042969 521.257812 C -209.753906 517.953125 -212.386719 514.582031 -214.933594 511.148438 C -217.480469 507.714844 -219.941406 504.21875 -222.316406 500.664062 C -224.691406 497.109375 -226.980469 493.496094 -229.175781 489.832031 C -231.375 486.164062 -233.480469 482.445312 -235.496094 478.671875 C -237.511719 474.902344 -239.433594 471.082031 -241.261719 467.21875 C -243.089844 463.351562 -244.824219 459.445312 -246.460938 455.496094 C -248.097656 451.542969 -249.632812 447.558594 -251.074219 443.53125 C -252.515625 439.503906 -253.855469 435.445312 -255.097656 431.355469 C -256.339844 427.261719 -257.476562 423.144531 -258.515625 418.996094 C -259.554688 414.847656 -260.492188 410.675781 -261.328125 406.484375 C -262.160156 402.289062 -262.890625 398.078125 -263.519531 393.847656 C -264.148438 389.621094 -264.671875 385.378906 -265.089844 381.121094 C -265.507812 376.867188 -265.824219 372.605469 -266.03125 368.332031 C -266.242188 364.0625 -266.347656 359.789062 -266.347656 355.515625 C -266.347656 351.238281 -266.242188 346.964844 -266.03125 342.695312 C -265.824219 338.421875 -265.507812 334.160156 -265.089844 329.90625 C -264.671875 325.648438 -264.148438 321.40625 -263.519531 317.179688 C -262.890625 312.949219 -262.160156 308.738281 -261.328125 304.542969 C -260.492188 300.351562 -259.554688 296.179688 -258.515625 292.03125 C -257.476562 287.882812 -256.339844 283.765625 -255.097656 279.671875 C -253.855469 275.582031 -252.515625 271.523438 -251.074219 267.496094 C -249.632812 263.472656 -248.097656 259.484375 -246.460938 255.53125 C -244.824219 251.582031 -243.089844 247.675781 -241.261719 243.808594 C -239.433594 239.945312 -237.511719 236.125 -235.496094 232.355469 C -233.480469 228.585938 -231.375 224.863281 -229.175781 221.199219 C -226.980469 217.53125 -224.691406 213.917969 -222.316406 210.363281 C -219.941406 206.808594 -217.480469 203.3125 -214.933594 199.878906 C -212.386719 196.445312 -209.753906 193.074219 -207.042969 189.769531 C -204.332031 186.464844 -201.539062 183.226562 -198.667969 180.058594 C -195.796875 176.890625 -192.847656 173.796875 -189.824219 170.773438 C -186.800781 167.75 -183.707031 164.800781 -180.539062 161.929688 C -177.371094 159.058594 -174.132812 156.265625 -170.828125 153.554688 C -167.523438 150.839844 -164.152344 148.210938 -160.71875 145.664062 C -157.285156 143.117188 -153.789062 140.65625 -150.234375 138.28125 C -146.679688 135.90625 -143.066406 133.617188 -139.398438 131.421875 C -135.730469 129.222656 -132.011719 127.117188 -128.242188 125.101562 C -124.472656 123.085938 -120.652344 121.164062 -116.789062 119.335938 C -112.921875 117.507812 -109.015625 115.773438 -105.066406 114.136719 C -101.113281 112.5 -97.125 110.960938 -93.101562 109.523438 C -89.074219 108.082031 -85.015625 106.742188 -80.925781 105.5 C -76.832031 104.257812 -72.714844 103.117188 -68.566406 102.078125 C -64.417969 101.039062 -60.246094 100.105469 -56.054688 99.269531 C -51.859375 98.4375 -47.648438 97.707031 -43.417969 97.078125 C -39.1875 96.449219 -34.945312 95.925781 -30.691406 95.507812 C -26.4375 95.089844 -22.171875 94.773438 -17.902344 94.566406 C -13.632812 94.355469 -9.359375 94.25 -5.082031 94.25 C -0.808594 94.25 3.464844 94.355469 7.734375 94.566406 C 12.007812 94.773438 16.269531 95.089844 20.523438 95.507812 C 24.78125 95.925781 29.023438 96.449219 33.253906 97.078125 C 37.480469 97.707031 41.691406 98.4375 45.886719 99.269531 C 50.082031 100.105469 54.25 101.039062 58.398438 102.078125 C 62.546875 103.117188 66.664062 104.257812 70.757812 105.5 C 74.847656 106.742188 78.90625 108.082031 82.933594 109.523438 C 86.960938 110.960938 90.949219 112.5 94.898438 114.136719 C 98.847656 115.773438 102.757812 117.507812 106.621094 119.335938 C 110.488281 121.164062 114.304688 123.085938 118.074219 125.101562 C 121.847656 127.117188 125.566406 129.222656 129.234375 131.421875 C 132.902344 133.617188 136.511719 135.90625 140.066406 138.28125 C 143.621094 140.65625 147.117188 143.117188 150.550781 145.664062 C 153.984375 148.210938 157.355469 150.839844 160.660156 153.554688 C 163.964844 156.265625 167.203125 159.058594 170.371094 161.929688 C 173.539062 164.800781 176.632812 167.75 179.65625 170.773438 C 182.679688 173.796875 185.628906 176.890625 188.5 180.058594 C 191.371094 183.226562 194.164062 186.464844 196.875 189.769531 C 199.589844 193.074219 202.21875 196.445312 204.765625 199.878906 C 207.3125 203.3125 209.773438 206.808594 212.148438 210.363281 C 214.523438 213.917969 216.8125 217.53125 219.011719 221.199219 C 221.207031 224.863281 223.316406 228.585938 225.332031 232.355469 C 227.347656 236.125 229.269531 239.945312 231.097656 243.808594 C 232.925781 247.675781 234.65625 251.582031 236.292969 255.53125 C 237.929688 259.484375 239.46875 263.472656 240.90625 267.496094 C 242.347656 271.523438 243.6875 275.582031 244.929688 279.671875 C 246.171875 283.765625 247.3125 287.882812 248.351562 292.03125 C 249.390625 296.179688 250.328125 300.351562 251.160156 304.542969 C 251.996094 308.738281 252.726562 312.949219 253.351562 317.179688 C 253.980469 321.40625 254.503906 325.648438 254.921875 329.90625 C 255.339844 334.160156 255.65625 338.421875 255.867188 342.695312 C 256.074219 346.964844 256.179688 351.238281 256.179688 355.515625 Z M 256.179688 355.515625 " fill-opacity="1" fill-rule="nonzero"/></g></g><g clip-path="url(#0664d98b39)"><g clip-path="url(#febd6241b1)"><path fill="#ffffff" d="M 167.304688 333.820312 C 167.304688 338.09375 167.199219 342.367188 166.992188 346.640625 C 166.78125 350.910156 166.464844 355.171875 166.046875 359.429688 C 165.628906 363.683594 165.105469 367.925781 164.476562 372.15625 C 163.851562 376.382812 163.121094 380.597656 162.285156 384.789062 C 161.453125 388.984375 160.515625 393.152344 159.476562 397.300781 C 158.4375 401.449219 157.296875 405.570312 156.054688 409.660156 C 154.8125 413.75 153.472656 417.8125 152.03125 421.835938 C 150.59375 425.863281 149.054688 429.851562 147.417969 433.800781 C 145.78125 437.75 144.050781 441.660156 142.222656 445.523438 C 140.394531 449.390625 138.472656 453.207031 136.457031 456.976562 C 134.441406 460.75 132.332031 464.46875 130.136719 468.136719 C 127.9375 471.804688 125.648438 475.414062 123.273438 478.96875 C 120.898438 482.523438 118.4375 486.019531 115.890625 489.453125 C 113.34375 492.886719 110.714844 496.257812 108 499.5625 C 105.289062 502.867188 102.496094 506.105469 99.625 509.273438 C 96.753906 512.441406 93.804688 515.539062 90.78125 518.5625 C 87.757812 521.585938 84.664062 524.53125 81.496094 527.402344 C 78.328125 530.273438 75.089844 533.066406 71.785156 535.777344 C 68.480469 538.492188 65.109375 541.121094 61.675781 543.667969 C 58.242188 546.214844 54.746094 548.675781 51.191406 551.050781 C 47.636719 553.429688 44.027344 555.714844 40.359375 557.914062 C 36.691406 560.109375 32.972656 562.21875 29.199219 564.234375 C 25.429688 566.25 21.613281 568.171875 17.746094 570 C 13.882812 571.828125 9.972656 573.558594 6.023438 575.195312 C 2.074219 576.832031 -1.914062 578.371094 -5.941406 579.8125 C -9.96875 581.25 -14.027344 582.59375 -18.117188 583.832031 C -22.210938 585.074219 -26.328125 586.214844 -30.476562 587.253906 C -34.625 588.292969 -38.792969 589.230469 -42.988281 590.0625 C -47.183594 590.898438 -51.394531 591.628906 -55.621094 592.253906 C -59.851562 592.882812 -64.09375 593.40625 -68.351562 593.824219 C -72.605469 594.246094 -76.867188 594.558594 -81.140625 594.769531 C -85.410156 594.976562 -89.683594 595.082031 -93.957031 595.082031 C -98.234375 595.082031 -102.507812 594.976562 -106.777344 594.769531 C -111.046875 594.558594 -115.3125 594.246094 -119.566406 593.824219 C -123.820312 593.40625 -128.0625 592.882812 -132.292969 592.253906 C -136.523438 591.628906 -140.734375 590.898438 -144.929688 590.0625 C -149.121094 589.230469 -153.292969 588.292969 -157.441406 587.253906 C -161.585938 586.214844 -165.707031 585.074219 -169.800781 583.832031 C -173.890625 582.59375 -177.949219 581.25 -181.976562 579.8125 C -186 578.371094 -189.988281 576.832031 -193.941406 575.195312 C -197.890625 573.558594 -201.796875 571.828125 -205.664062 570 C -209.527344 568.171875 -213.347656 566.25 -217.117188 564.234375 C -220.886719 562.21875 -224.605469 560.109375 -228.273438 557.914062 C -231.941406 555.714844 -235.554688 553.429688 -239.109375 551.050781 C -242.664062 548.675781 -246.160156 546.214844 -249.59375 543.667969 C -253.027344 541.121094 -256.398438 538.492188 -259.703125 535.777344 C -263.007812 533.066406 -266.246094 530.273438 -269.414062 527.402344 C -272.582031 524.53125 -275.675781 521.585938 -278.699219 518.5625 C -281.722656 515.539062 -284.671875 512.441406 -287.542969 509.273438 C -290.414062 506.105469 -293.207031 502.867188 -295.917969 499.5625 C -298.628906 496.257812 -301.261719 492.886719 -303.808594 489.453125 C -306.355469 486.019531 -308.816406 482.523438 -311.191406 478.96875 C -313.566406 475.414062 -315.855469 471.804688 -318.050781 468.136719 C -320.25 464.46875 -322.355469 460.75 -324.371094 456.976562 C -326.386719 453.207031 -328.308594 449.390625 -330.136719 445.523438 C -331.964844 441.660156 -333.699219 437.75 -335.335938 433.800781 C -336.972656 429.851562 -338.507812 425.863281 -339.949219 421.835938 C -341.390625 417.8125 -342.730469 413.75 -343.972656 409.660156 C -345.214844 405.570312 -346.355469 401.449219 -347.390625 397.300781 C -348.429688 393.152344 -349.367188 388.984375 -350.203125 384.789062 C -351.035156 380.597656 -351.765625 376.382812 -352.394531 372.15625 C -353.023438 367.925781 -353.546875 363.683594 -353.964844 359.429688 C -354.382812 355.171875 -354.699219 350.910156 -354.90625 346.640625 C -355.117188 342.367188 -355.222656 338.09375 -355.222656 333.820312 C -355.222656 329.542969 -355.117188 325.269531 -354.90625 321 C -354.699219 316.730469 -354.382812 312.464844 -353.964844 308.210938 C -353.546875 303.957031 -353.023438 299.714844 -352.394531 295.484375 C -351.765625 291.253906 -351.035156 287.042969 -350.203125 282.847656 C -349.367188 278.65625 -348.429688 274.484375 -347.390625 270.335938 C -346.355469 266.191406 -345.214844 262.070312 -343.972656 257.976562 C -342.730469 253.886719 -341.390625 249.828125 -339.949219 245.800781 C -338.507812 241.777344 -336.972656 237.789062 -335.335938 233.839844 C -333.699219 229.886719 -331.964844 225.980469 -330.136719 222.113281 C -328.308594 218.25 -326.386719 214.429688 -324.371094 210.660156 C -322.355469 206.890625 -320.25 203.171875 -318.050781 199.503906 C -315.855469 195.835938 -313.566406 192.222656 -311.191406 188.667969 C -308.816406 185.113281 -306.355469 181.617188 -303.808594 178.183594 C -301.261719 174.75 -298.628906 171.378906 -295.917969 168.074219 C -293.207031 164.769531 -290.414062 161.535156 -287.542969 158.367188 C -284.671875 155.195312 -281.722656 152.101562 -278.699219 149.078125 C -275.675781 146.054688 -272.582031 143.105469 -269.414062 140.234375 C -266.246094 137.363281 -263.007812 134.570312 -259.703125 131.859375 C -256.398438 129.148438 -253.027344 126.515625 -249.59375 123.96875 C -246.160156 121.421875 -242.664062 118.960938 -239.109375 116.585938 C -235.554688 114.210938 -231.941406 111.925781 -228.273438 109.726562 C -224.605469 107.527344 -220.886719 105.421875 -217.117188 103.40625 C -213.347656 101.390625 -209.527344 99.46875 -205.664062 97.640625 C -201.796875 95.8125 -197.890625 94.078125 -193.941406 92.441406 C -189.988281 90.808594 -186 89.269531 -181.976562 87.828125 C -177.949219 86.386719 -173.890625 85.046875 -169.800781 83.804688 C -165.707031 82.5625 -161.585938 81.425781 -157.441406 80.386719 C -153.292969 79.347656 -149.121094 78.410156 -144.929688 77.574219 C -140.734375 76.742188 -136.523438 76.011719 -132.292969 75.382812 C -128.0625 74.757812 -123.820312 74.234375 -119.566406 73.8125 C -115.3125 73.394531 -111.046875 73.078125 -106.777344 72.871094 C -102.507812 72.660156 -98.234375 72.554688 -93.957031 72.554688 C -89.683594 72.554688 -85.410156 72.660156 -81.140625 72.871094 C -76.867188 73.078125 -72.605469 73.394531 -68.351562 73.8125 C -64.09375 74.234375 -59.851562 74.757812 -55.621094 75.382812 C -51.394531 76.011719 -47.183594 76.742188 -42.988281 77.574219 C -38.792969 78.410156 -34.625 79.347656 -30.476562 80.386719 C -26.328125 81.425781 -22.210938 82.5625 -18.117188 83.804688 C -14.027344 85.046875 -9.96875 86.386719 -5.941406 87.828125 C -1.914062 89.269531 2.074219 90.808594 6.023438 92.441406 C 9.972656 94.078125 13.882812 95.8125 17.746094 97.640625 C 21.613281 99.46875 25.429688 101.390625 29.199219 103.40625 C 32.972656 105.421875 36.691406 107.527344 40.359375 109.726562 C 44.027344 111.925781 47.636719 114.210938 51.191406 116.585938 C 54.746094 118.960938 58.242188 121.421875 61.675781 123.96875 C 65.109375 126.515625 68.480469 129.148438 71.785156 131.859375 C 75.089844 134.570312 78.328125 137.363281 81.496094 140.234375 C 84.664062 143.105469 87.757812 146.054688 90.78125 149.078125 C 93.804688 152.101562 96.753906 155.195312 99.625 158.367188 C 102.496094 161.535156 105.289062 164.769531 108 168.074219 C 110.714844 171.378906 113.34375 174.75 115.890625 178.183594 C 118.4375 181.617188 120.898438 185.113281 123.273438 188.667969 C 125.648438 192.222656 127.9375 195.835938 130.136719 199.503906 C 132.332031 203.171875 134.441406 206.890625 136.457031 210.660156 C 138.472656 214.429688 140.394531 218.25 142.222656 222.113281 C 144.050781 225.980469 145.78125 229.886719 147.417969 233.839844 C 149.054688 237.789062 150.59375 241.777344 152.03125 245.800781 C 153.472656 249.828125 154.8125 253.886719 156.054688 257.976562 C 157.296875 262.070312 158.4375 266.191406 159.476562 270.335938 C 160.515625 274.484375 161.453125 278.65625 162.285156 282.847656 C 163.121094 287.042969 163.851562 291.253906 164.476562 295.484375 C 165.105469 299.714844 165.628906 303.957031 166.046875 308.210938 C 166.464844 312.464844 166.78125 316.730469 166.992188 321 C 167.199219 325.269531 167.304688 329.542969 167.304688 333.820312 Z M 167.304688 333.820312 " fill-opacity="1" fill-rule="nonzero"/></g></g></svg>